<?xml version="1.0" encoding="windows-1252" standalone="no"?>
<svg xmlns="http://www.w3.org/2000/svg" xmlns:xlink="http://www.w3.org/1999/xlink" contentStyleType="text/css" height="679px" preserveAspectRatio="none" style="width:1623px;height:679px;background:#FFFFFF;" version="1.1" viewBox="0 0 1623 679" width="1623px" zoomAndPan="magnify"><defs/><g><!--class CloudDriver--><g id="elem_CloudDriver"><rect codeLine="3" fill="#F1F1F1" height="80.5938" id="CloudDriver" rx="2.5" ry="2.5" style="stroke:#181818;stroke-width:0.5;" width="112" x="43.73" y="23.29"/><ellipse cx="58.73" cy="39.29" fill="#ADD1B2" rx="11" ry="11" style="stroke:#181818;stroke-width:1.0;"/><path d="M61.6988,44.9306 Q61.1206,45.2275 60.48,45.3681 Q59.8394,45.5244 59.1363,45.5244 Q56.6363,45.5244 55.3081,43.8838 Q53.9956,42.2275 53.9956,39.1025 Q53.9956,35.9775 55.3081,34.3213 Q56.6363,32.665 59.1363,32.665 Q59.8394,32.665 60.48,32.8213 Q61.1363,32.9775 61.6988,33.2744 L61.6988,35.9931 Q61.0738,35.415 60.48,35.1494 Q59.8863,34.8681 59.2613,34.8681 Q57.9175,34.8681 57.23,35.9463 Q56.5425,37.0088 56.5425,39.1025 Q56.5425,41.1963 57.23,42.2744 Q57.9175,43.3369 59.2613,43.3369 Q59.8863,43.3369 60.48,43.0713 Q61.0738,42.79 61.6988,42.2119 L61.6988,44.9306 Z " fill="#000000"/><text fill="#000000" font-family="sans-serif" font-size="14" lengthAdjust="spacing" textLength="80" x="72.73" y="44.1367">CloudDriver</text><line style="stroke:#181818;stroke-width:0.5;" x1="44.73" x2="154.73" y1="55.29" y2="55.29"/><text fill="#000000" font-family="sans-serif" font-size="14" lengthAdjust="spacing" textLength="47" x="49.73" y="72.2851">file:File</text><text fill="#000000" font-family="sans-serif" font-size="14" lengthAdjust="spacing" textLength="68" x="49.73" y="88.582">user:User</text><line style="stroke:#181818;stroke-width:0.5;" x1="44.73" x2="154.73" y1="95.8838" y2="95.8838"/></g><!--class File--><g id="elem_File"><rect codeLine="8" fill="#F1F1F1" height="162.0781" id="File" rx="2.5" ry="2.5" style="stroke:#181818;stroke-width:0.5;" width="140" x="335.73" y="180.18"/><ellipse cx="389.98" cy="196.18" fill="#ADD1B2" rx="11" ry="11" style="stroke:#181818;stroke-width:1.0;"/><path d="M392.9488,201.8206 Q392.3706,202.1175 391.73,202.2581 Q391.0894,202.4144 390.3863,202.4144 Q387.8863,202.4144 386.5581,200.7738 Q385.2456,199.1175 385.2456,195.9925 Q385.2456,192.8675 386.5581,191.2113 Q387.8863,189.555 390.3863,189.555 Q391.0894,189.555 391.73,189.7113 Q392.3863,189.8675 392.9488,190.1644 L392.9488,192.8831 Q392.3238,192.305 391.73,192.0394 Q391.1363,191.7581 390.5113,191.7581 Q389.1675,191.7581 388.48,192.8363 Q387.7925,193.8988 387.7925,195.9925 Q387.7925,198.0863 388.48,199.1644 Q389.1675,200.2269 390.5113,200.2269 Q391.1363,200.2269 391.73,199.9613 Q392.3238,199.68 392.9488,199.1019 L392.9488,201.8206 Z " fill="#000000"/><text fill="#000000" font-family="sans-serif" font-size="14" lengthAdjust="spacing" textLength="23" x="410.48" y="201.0267">File</text><line style="stroke:#181818;stroke-width:0.5;" x1="336.73" x2="474.73" y1="212.18" y2="212.18"/><text fill="#000000" font-family="sans-serif" font-size="14" lengthAdjust="spacing" textLength="84" x="341.73" y="229.1751">name:String</text><text fill="#000000" font-family="sans-serif" font-size="14" lengthAdjust="spacing" textLength="82" x="341.73" y="245.472">size:Integer</text><text fill="#000000" font-family="sans-serif" font-size="14" lengthAdjust="spacing" textLength="96" x="341.73" y="261.7689">selected:Bool</text><line style="stroke:#181818;stroke-width:0.5;" x1="336.73" x2="474.73" y1="269.0706" y2="269.0706"/><ellipse cx="346.73" cy="282.7191" fill="#84BE84" rx="3" ry="3" style="stroke:#038048;stroke-width:1.0;"/><text fill="#000000" font-family="sans-serif" font-size="14" lengthAdjust="spacing" textLength="93" x="355.73" y="286.0657">upload():Bool</text><ellipse cx="346.73" cy="299.0159" fill="#84BE84" rx="3" ry="3" style="stroke:#038048;stroke-width:1.0;"/><text fill="#000000" font-family="sans-serif" font-size="14" lengthAdjust="spacing" textLength="113" x="355.73" y="302.3626">download():Bool</text><ellipse cx="346.73" cy="315.3128" fill="#84BE84" rx="3" ry="3" style="stroke:#038048;stroke-width:1.0;"/><text fill="#000000" font-family="sans-serif" font-size="14" lengthAdjust="spacing" textLength="90" x="355.73" y="318.6595">delete():Bool</text><ellipse cx="346.73" cy="331.6097" fill="#84BE84" rx="3" ry="3" style="stroke:#038048;stroke-width:1.0;"/><text fill="#000000" font-family="sans-serif" font-size="14" lengthAdjust="spacing" textLength="114" x="355.73" y="334.9564">share(User):void</text></g><!--class User--><g id="elem_User"><rect codeLine="84" fill="#F1F1F1" height="145.7813" id="User" rx="2.5" ry="2.5" style="stroke:#181818;stroke-width:0.5;" width="192" x="100.73" y="402.26"/><ellipse cx="176.48" cy="418.26" fill="#ADD1B2" rx="11" ry="11" style="stroke:#181818;stroke-width:1.0;"/><path d="M179.4488,423.9006 Q178.8706,424.1975 178.23,424.3381 Q177.5894,424.4944 176.8863,424.4944 Q174.3863,424.4944 173.0581,422.8538 Q171.7456,421.1975 171.7456,418.0725 Q171.7456,414.9475 173.0581,413.2913 Q174.3863,411.635 176.8863,411.635 Q177.5894,411.635 178.23,411.7913 Q178.8863,411.9475 179.4488,412.2444 L179.4488,414.9631 Q178.8238,414.385 178.23,414.1194 Q177.6363,413.8381 177.0113,413.8381 Q175.6675,413.8381 174.98,414.9163 Q174.2925,415.9788 174.2925,418.0725 Q174.2925,420.1663 174.98,421.2444 Q175.6675,422.3069 177.0113,422.3069 Q177.6363,422.3069 178.23,422.0413 Q178.8238,421.76 179.4488,421.1819 L179.4488,423.9006 Z " fill="#000000"/><text fill="#000000" font-family="sans-serif" font-size="14" lengthAdjust="spacing" textLength="32" x="196.98" y="423.1067">User</text><line style="stroke:#181818;stroke-width:0.5;" x1="101.73" x2="291.73" y1="434.26" y2="434.26"/><text fill="#000000" font-family="sans-serif" font-size="14" lengthAdjust="spacing" textLength="66" x="106.73" y="451.2551">id:Integer</text><text fill="#000000" font-family="sans-serif" font-size="14" lengthAdjust="spacing" textLength="84" x="106.73" y="467.552">name:String</text><text fill="#000000" font-family="sans-serif" font-size="14" lengthAdjust="spacing" textLength="112" x="106.73" y="483.8489">password:String</text><line style="stroke:#181818;stroke-width:0.5;" x1="101.73" x2="291.73" y1="491.1506" y2="491.1506"/><ellipse cx="111.73" cy="504.7991" fill="#84BE84" rx="3" ry="3" style="stroke:#038048;stroke-width:1.0;"/><text fill="#000000" font-family="sans-serif" font-size="14" lengthAdjust="spacing" textLength="79" x="120.73" y="508.1457">login():Bool</text><ellipse cx="111.73" cy="521.0959" fill="#84BE84" rx="3" ry="3" style="stroke:#038048;stroke-width:1.0;"/><text fill="#000000" font-family="sans-serif" font-size="14" lengthAdjust="spacing" textLength="90" x="120.73" y="524.4426">logout():Bool</text><ellipse cx="111.73" cy="537.3928" fill="#84BE84" rx="3" ry="3" style="stroke:#038048;stroke-width:1.0;"/><text fill="#000000" font-family="sans-serif" font-size="14" lengthAdjust="spacing" textLength="166" x="120.73" y="540.7395">searchUser(String):User</text></g><!--class FileCreator--><g id="elem_FileCreator"><rect codeLine="18" fill="#F1F1F1" height="64.2969" id="FileCreator" rx="2.5" ry="2.5" style="stroke:#181818;stroke-width:0.5;" width="122" x="1309.73" y="31.44"/><ellipse cx="1331.93" cy="47.44" fill="#A9DCDF" rx="11" ry="11" style="stroke:#181818;stroke-width:1.0;"/><path d="M1332.0394,42.7838 L1330.8831,47.8619 L1333.2113,47.8619 L1332.0394,42.7838 Z M1330.555,40.5494 L1333.5394,40.5494 L1336.8988,52.94 L1334.4456,52.94 L1333.68,49.8775 L1330.3988,49.8775 L1329.6488,52.94 L1327.2113,52.94 L1330.555,40.5494 Z " fill="#000000"/><text fill="#000000" font-family="sans-serif" font-size="14" font-style="italic" lengthAdjust="spacing" textLength="74" x="1347.53" y="52.2867">FileCreator</text><line style="stroke:#181818;stroke-width:0.5;" x1="1310.73" x2="1430.73" y1="63.44" y2="63.44"/><line style="stroke:#181818;stroke-width:0.5;" x1="1310.73" x2="1430.73" y1="71.44" y2="71.44"/><ellipse cx="1320.73" cy="85.0884" fill="#84BE84" rx="3" ry="3" style="stroke:#038048;stroke-width:1.0;"/><text fill="#000000" font-family="sans-serif" font-size="14" lengthAdjust="spacing" textLength="96" x="1329.73" y="88.4351">creatFile():File</text></g><!--class VideoCreator--><g id="elem_VideoCreator"><rect codeLine="22" fill="#F1F1F1" height="64.2969" id="VideoCreator" rx="2.5" ry="2.5" style="stroke:#181818;stroke-width:0.5;" width="138" x="1301.73" y="229.07"/><ellipse cx="1323.93" cy="245.07" fill="#ADD1B2" rx="11" ry="11" style="stroke:#181818;stroke-width:1.0;"/><path d="M1326.8988,250.7106 Q1326.3206,251.0075 1325.68,251.1481 Q1325.0394,251.3044 1324.3363,251.3044 Q1321.8363,251.3044 1320.5081,249.6638 Q1319.1956,248.0075 1319.1956,244.8825 Q1319.1956,241.7575 1320.5081,240.1013 Q1321.8363,238.445 1324.3363,238.445 Q1325.0394,238.445 1325.68,238.6013 Q1326.3363,238.7575 1326.8988,239.0544 L1326.8988,241.7731 Q1326.2738,241.195 1325.68,240.9294 Q1325.0863,240.6481 1324.4613,240.6481 Q1323.1175,240.6481 1322.43,241.7263 Q1321.7425,242.7888 1321.7425,244.8825 Q1321.7425,246.9763 1322.43,248.0544 Q1323.1175,249.1169 1324.4613,249.1169 Q1325.0863,249.1169 1325.68,248.8513 Q1326.2738,248.57 1326.8988,247.9919 L1326.8988,250.7106 Z " fill="#000000"/><text fill="#000000" font-family="sans-serif" font-size="14" lengthAdjust="spacing" textLength="90" x="1339.53" y="249.9167">VideoCreator</text><line style="stroke:#181818;stroke-width:0.5;" x1="1302.73" x2="1438.73" y1="261.07" y2="261.07"/><line style="stroke:#181818;stroke-width:0.5;" x1="1302.73" x2="1438.73" y1="269.07" y2="269.07"/><ellipse cx="1312.73" cy="282.7184" fill="#84BE84" rx="3" ry="3" style="stroke:#038048;stroke-width:1.0;"/><text fill="#000000" font-family="sans-serif" font-size="14" lengthAdjust="spacing" textLength="112" x="1321.73" y="286.0651">creatFile():Video</text></g><!--class ImageCreator--><g id="elem_ImageCreator"><rect codeLine="26" fill="#F1F1F1" height="64.2969" id="ImageCreator" rx="2.5" ry="2.5" style="stroke:#181818;stroke-width:0.5;" width="141" x="1475.23" y="229.07"/><ellipse cx="1497.43" cy="245.07" fill="#ADD1B2" rx="11" ry="11" style="stroke:#181818;stroke-width:1.0;"/><path d="M1500.3988,250.7106 Q1499.8206,251.0075 1499.18,251.1481 Q1498.5394,251.3044 1497.8363,251.3044 Q1495.3363,251.3044 1494.0081,249.6638 Q1492.6956,248.0075 1492.6956,244.8825 Q1492.6956,241.7575 1494.0081,240.1013 Q1495.3363,238.445 1497.8363,238.445 Q1498.5394,238.445 1499.18,238.6013 Q1499.8363,238.7575 1500.3988,239.0544 L1500.3988,241.7731 Q1499.7738,241.195 1499.18,240.9294 Q1498.5863,240.6481 1497.9613,240.6481 Q1496.6175,240.6481 1495.93,241.7263 Q1495.2425,242.7888 1495.2425,244.8825 Q1495.2425,246.9763 1495.93,248.0544 Q1496.6175,249.1169 1497.9613,249.1169 Q1498.5863,249.1169 1499.18,248.8513 Q1499.7738,248.57 1500.3988,247.9919 L1500.3988,250.7106 Z " fill="#000000"/><text fill="#000000" font-family="sans-serif" font-size="14" lengthAdjust="spacing" textLength="93" x="1513.03" y="249.9167">ImageCreator</text><line style="stroke:#181818;stroke-width:0.5;" x1="1476.23" x2="1615.23" y1="261.07" y2="261.07"/><line style="stroke:#181818;stroke-width:0.5;" x1="1476.23" x2="1615.23" y1="269.07" y2="269.07"/><ellipse cx="1486.23" cy="282.7184" fill="#84BE84" rx="3" ry="3" style="stroke:#038048;stroke-width:1.0;"/><text fill="#000000" font-family="sans-serif" font-size="14" lengthAdjust="spacing" textLength="115" x="1495.23" y="286.0651">creatFile():Image</text></g><!--class Image--><g id="elem_Image"><rect codeLine="35" fill="#F1F1F1" height="80.5938" id="Image" rx="2.5" ry="2.5" style="stroke:#181818;stroke-width:0.5;" width="204" x="651.73" y="434.86"/><ellipse cx="728.48" cy="450.86" fill="#ADD1B2" rx="11" ry="11" style="stroke:#181818;stroke-width:1.0;"/><path d="M731.4488,456.5006 Q730.8706,456.7975 730.23,456.9381 Q729.5894,457.0944 728.8863,457.0944 Q726.3863,457.0944 725.0581,455.4538 Q723.7456,453.7975 723.7456,450.6725 Q723.7456,447.5475 725.0581,445.8913 Q726.3863,444.235 728.8863,444.235 Q729.5894,444.235 730.23,444.3913 Q730.8863,444.5475 731.4488,444.8444 L731.4488,447.5631 Q730.8238,446.985 730.23,446.7194 Q729.6363,446.4381 729.0113,446.4381 Q727.6675,446.4381 726.98,447.5163 Q726.2925,448.5788 726.2925,450.6725 Q726.2925,452.7663 726.98,453.8444 Q727.6675,454.9069 729.0113,454.9069 Q729.6363,454.9069 730.23,454.6413 Q730.8238,454.36 731.4488,453.7819 L731.4488,456.5006 Z " fill="#000000"/><text fill="#000000" font-family="sans-serif" font-size="14" lengthAdjust="spacing" textLength="42" x="748.98" y="455.7067">Image</text><line style="stroke:#181818;stroke-width:0.5;" x1="652.73" x2="854.73" y1="466.86" y2="466.86"/><line style="stroke:#181818;stroke-width:0.5;" x1="652.73" x2="854.73" y1="474.86" y2="474.86"/><ellipse cx="662.73" cy="488.5084" fill="#84BE84" rx="3" ry="3" style="stroke:#038048;stroke-width:1.0;"/><text fill="#000000" font-family="sans-serif" font-size="14" lengthAdjust="spacing" textLength="178" x="671.73" y="491.8551">generateThumbnail():void</text><ellipse cx="662.73" cy="504.8053" fill="#84BE84" rx="3" ry="3" style="stroke:#038048;stroke-width:1.0;"/><text fill="#000000" font-family="sans-serif" font-size="14" lengthAdjust="spacing" textLength="80" x="671.73" y="508.152">show():void</text></g><!--class Multimedia--><g id="elem_Multimedia"><rect codeLine="31" fill="#F1F1F1" height="64.2969" id="Multimedia" rx="2.5" ry="2.5" style="stroke:#181818;stroke-width:0.5;" width="106" x="485.73" y="608.04"/><ellipse cx="500.73" cy="624.04" fill="#B4A7E5" rx="11" ry="11" style="stroke:#181818;stroke-width:1.0;"/><path d="M496.6519,619.8056 L496.6519,617.6494 L504.0425,617.6494 L504.0425,619.8056 L501.5738,619.8056 L501.5738,627.8838 L504.0425,627.8838 L504.0425,630.04 L496.6519,630.04 L496.6519,627.8838 L499.1206,627.8838 L499.1206,619.8056 L496.6519,619.8056 Z " fill="#000000"/><text fill="#000000" font-family="sans-serif" font-size="14" font-style="italic" lengthAdjust="spacing" textLength="74" x="514.73" y="628.8867">Multimedia</text><line style="stroke:#181818;stroke-width:0.5;" x1="486.73" x2="590.73" y1="640.04" y2="640.04"/><line style="stroke:#181818;stroke-width:0.5;" x1="486.73" x2="590.73" y1="648.04" y2="648.04"/><ellipse cx="496.73" cy="661.6884" fill="#84BE84" rx="3" ry="3" style="stroke:#038048;stroke-width:1.0;"/><text fill="#000000" font-family="sans-serif" font-size="14" lengthAdjust="spacing" textLength="80" x="505.73" y="665.0351">show():void</text></g><!--class Video--><g id="elem_Video"><rect codeLine="40" fill="#F1F1F1" height="80.5938" id="Video" rx="2.5" ry="2.5" style="stroke:#181818;stroke-width:0.5;" width="204" x="412.73" y="434.86"/><ellipse cx="490.98" cy="450.86" fill="#ADD1B2" rx="11" ry="11" style="stroke:#181818;stroke-width:1.0;"/><path d="M493.9488,456.5006 Q493.3706,456.7975 492.73,456.9381 Q492.0894,457.0944 491.3863,457.0944 Q488.8863,457.0944 487.5581,455.4538 Q486.2456,453.7975 486.2456,450.6725 Q486.2456,447.5475 487.5581,445.8913 Q488.8863,444.235 491.3863,444.235 Q492.0894,444.235 492.73,444.3913 Q493.3863,444.5475 493.9488,444.8444 L493.9488,447.5631 Q493.3238,446.985 492.73,446.7194 Q492.1363,446.4381 491.5113,446.4381 Q490.1675,446.4381 489.48,447.5163 Q488.7925,448.5788 488.7925,450.6725 Q488.7925,452.7663 489.48,453.8444 Q490.1675,454.9069 491.5113,454.9069 Q492.1363,454.9069 492.73,454.6413 Q493.3238,454.36 493.9488,453.7819 L493.9488,456.5006 Z " fill="#000000"/><text fill="#000000" font-family="sans-serif" font-size="14" lengthAdjust="spacing" textLength="39" x="511.48" y="455.7067">Video</text><line style="stroke:#181818;stroke-width:0.5;" x1="413.73" x2="615.73" y1="466.86" y2="466.86"/><line style="stroke:#181818;stroke-width:0.5;" x1="413.73" x2="615.73" y1="474.86" y2="474.86"/><ellipse cx="423.73" cy="488.5084" fill="#84BE84" rx="3" ry="3" style="stroke:#038048;stroke-width:1.0;"/><text fill="#000000" font-family="sans-serif" font-size="14" lengthAdjust="spacing" textLength="178" x="432.73" y="491.8551">generateThumbnail():void</text><ellipse cx="423.73" cy="504.8053" fill="#84BE84" rx="3" ry="3" style="stroke:#038048;stroke-width:1.0;"/><text fill="#000000" font-family="sans-serif" font-size="14" lengthAdjust="spacing" textLength="80" x="432.73" y="508.152">show():void</text></g><!--class Thumbnail--><g id="elem_Thumbnail"><rect codeLine="46" fill="#F1F1F1" height="64.2969" id="Thumbnail" rx="2.5" ry="2.5" style="stroke:#181818;stroke-width:0.5;" width="204" x="638.73" y="608.04"/><ellipse cx="700.48" cy="624.04" fill="#B4A7E5" rx="11" ry="11" style="stroke:#181818;stroke-width:1.0;"/><path d="M696.4019,619.8056 L696.4019,617.6494 L703.7925,617.6494 L703.7925,619.8056 L701.3238,619.8056 L701.3238,627.8838 L703.7925,627.8838 L703.7925,630.04 L696.4019,630.04 L696.4019,627.8838 L698.8706,627.8838 L698.8706,619.8056 L696.4019,619.8056 Z " fill="#000000"/><text fill="#000000" font-family="sans-serif" font-size="14" font-style="italic" lengthAdjust="spacing" textLength="72" x="720.98" y="628.8867">Thumbnail</text><line style="stroke:#181818;stroke-width:0.5;" x1="639.73" x2="841.73" y1="640.04" y2="640.04"/><line style="stroke:#181818;stroke-width:0.5;" x1="639.73" x2="841.73" y1="648.04" y2="648.04"/><ellipse cx="649.73" cy="661.6884" fill="#84BE84" rx="3" ry="3" style="stroke:#038048;stroke-width:1.0;"/><text fill="#000000" font-family="sans-serif" font-size="14" lengthAdjust="spacing" textLength="178" x="658.73" y="665.0351">generateThumbnail():void</text></g><!--class VideoTranscoder--><g id="elem_VideoTranscoder"><rect codeLine="50" fill="#F1F1F1" height="113.1875" id="VideoTranscoder" rx="2.5" ry="2.5" style="stroke:#181818;stroke-width:0.5;" width="246" x="54.73" y="204.63"/><ellipse cx="114.48" cy="220.63" fill="#ADD1B2" rx="11" ry="11" style="stroke:#181818;stroke-width:1.0;"/><path d="M117.4488,226.2706 Q116.8706,226.5675 116.23,226.7081 Q115.5894,226.8644 114.8863,226.8644 Q112.3863,226.8644 111.0581,225.2238 Q109.7456,223.5675 109.7456,220.4425 Q109.7456,217.3175 111.0581,215.6613 Q112.3863,214.005 114.8863,214.005 Q115.5894,214.005 116.23,214.1613 Q116.8863,214.3175 117.4488,214.6144 L117.4488,217.3331 Q116.8238,216.755 116.23,216.4894 Q115.6363,216.2081 115.0113,216.2081 Q113.6675,216.2081 112.98,217.2863 Q112.2925,218.3488 112.2925,220.4425 Q112.2925,222.5363 112.98,223.6144 Q113.6675,224.6769 115.0113,224.6769 Q115.6363,224.6769 116.23,224.4113 Q116.8238,224.13 117.4488,223.5519 L117.4488,226.2706 Z " fill="#000000"/><text fill="#000000" font-family="sans-serif" font-size="14" lengthAdjust="spacing" textLength="118" x="134.98" y="225.4767">VideoTranscoder</text><line style="stroke:#181818;stroke-width:0.5;" x1="55.73" x2="299.73" y1="236.63" y2="236.63"/><rect fill="none" height="6" style="stroke:#C82930;stroke-width:1.0;" width="6" x="62.73" y="247.2784"/><text fill="#000000" font-family="sans-serif" font-size="14" lengthAdjust="spacing" textLength="182" x="74.73" y="253.6251">instance:VideoTranscoder</text><line style="stroke:#181818;stroke-width:0.5;" x1="55.73" x2="299.73" y1="260.9269" y2="260.9269"/><rect fill="#F24D5C" height="6" style="stroke:#C82930;stroke-width:1.0;" width="6" x="62.73" y="271.5753"/><text fill="#000000" font-family="sans-serif" font-size="14" lengthAdjust="spacing" textLength="128" x="74.73" y="277.922">VideoTranscoder()</text><ellipse cx="65.73" cy="290.8722" fill="#84BE84" rx="3" ry="3" style="stroke:#038048;stroke-width:1.0;"/><text fill="#000000" font-family="sans-serif" font-size="14" lengthAdjust="spacing" textLength="220" x="74.73" y="294.2189">get­Instance():VideoTranscoder</text><ellipse cx="65.73" cy="307.1691" fill="#84BE84" rx="3" ry="3" style="stroke:#038048;stroke-width:1.0;"/><text fill="#000000" font-family="sans-serif" font-size="14" lengthAdjust="spacing" textLength="163" x="74.73" y="310.5157">transcode(Video):Video</text></g><!--class ContentCensor--><g id="elem_ContentCensor"><rect codeLine="57" fill="#F1F1F1" height="113.1875" id="ContentCensor" rx="2.5" ry="2.5" style="stroke:#181818;stroke-width:0.5;" width="234" x="288.73" y="7"/><ellipse cx="348.48" cy="23" fill="#ADD1B2" rx="11" ry="11" style="stroke:#181818;stroke-width:1.0;"/><path d="M351.4488,28.6406 Q350.8706,28.9375 350.23,29.0781 Q349.5894,29.2344 348.8863,29.2344 Q346.3863,29.2344 345.0581,27.5938 Q343.7456,25.9375 343.7456,22.8125 Q343.7456,19.6875 345.0581,18.0313 Q346.3863,16.375 348.8863,16.375 Q349.5894,16.375 350.23,16.5313 Q350.8863,16.6875 351.4488,16.9844 L351.4488,19.7031 Q350.8238,19.125 350.23,18.8594 Q349.6363,18.5781 349.0113,18.5781 Q347.6675,18.5781 346.98,19.6563 Q346.2925,20.7188 346.2925,22.8125 Q346.2925,24.9063 346.98,25.9844 Q347.6675,27.0469 349.0113,27.0469 Q349.6363,27.0469 350.23,26.7813 Q350.8238,26.5 351.4488,25.9219 L351.4488,28.6406 Z " fill="#000000"/><text fill="#000000" font-family="sans-serif" font-size="14" lengthAdjust="spacing" textLength="106" x="368.98" y="27.8467">ContentCensor</text><line style="stroke:#181818;stroke-width:0.5;" x1="289.73" x2="521.73" y1="39" y2="39"/><rect fill="none" height="6" style="stroke:#C82930;stroke-width:1.0;" width="6" x="296.73" y="49.6484"/><text fill="#000000" font-family="sans-serif" font-size="14" lengthAdjust="spacing" textLength="170" x="308.73" y="55.9951">instance:ContentCensor</text><line style="stroke:#181818;stroke-width:0.5;" x1="289.73" x2="521.73" y1="63.2969" y2="63.2969"/><rect fill="#F24D5C" height="6" style="stroke:#C82930;stroke-width:1.0;" width="6" x="296.73" y="73.9453"/><text fill="#000000" font-family="sans-serif" font-size="14" lengthAdjust="spacing" textLength="116" x="308.73" y="80.292">ContentCensor()</text><ellipse cx="299.73" cy="93.2422" fill="#84BE84" rx="3" ry="3" style="stroke:#038048;stroke-width:1.0;"/><text fill="#000000" font-family="sans-serif" font-size="14" lengthAdjust="spacing" textLength="208" x="308.73" y="96.5889">get­Instance():ContentCensor</text><ellipse cx="299.73" cy="109.5391" fill="#84BE84" rx="3" ry="3" style="stroke:#038048;stroke-width:1.0;"/><text fill="#000000" font-family="sans-serif" font-size="14" lengthAdjust="spacing" textLength="113" x="308.73" y="112.8857">review(File):Bool</text></g><!--class ImageClassifier--><g id="elem_ImageClassifier"><rect codeLine="64" fill="#F1F1F1" height="113.1875" id="ImageClassifier" rx="2.5" ry="2.5" style="stroke:#181818;stroke-width:0.5;" width="231" x="771.23" y="204.63"/><ellipse cx="830.98" cy="220.63" fill="#ADD1B2" rx="11" ry="11" style="stroke:#181818;stroke-width:1.0;"/><path d="M833.9488,226.2706 Q833.3706,226.5675 832.73,226.7081 Q832.0894,226.8644 831.3863,226.8644 Q828.8863,226.8644 827.5581,225.2238 Q826.2456,223.5675 826.2456,220.4425 Q826.2456,217.3175 827.5581,215.6613 Q828.8863,214.005 831.3863,214.005 Q832.0894,214.005 832.73,214.1613 Q833.3863,214.3175 833.9488,214.6144 L833.9488,217.3331 Q833.3238,216.755 832.73,216.4894 Q832.1363,216.2081 831.5113,216.2081 Q830.1675,216.2081 829.48,217.2863 Q828.7925,218.3488 828.7925,220.4425 Q828.7925,222.5363 829.48,223.6144 Q830.1675,224.6769 831.5113,224.6769 Q832.1363,224.6769 832.73,224.4113 Q833.3238,224.13 833.9488,223.5519 L833.9488,226.2706 Z " fill="#000000"/><text fill="#000000" font-family="sans-serif" font-size="14" lengthAdjust="spacing" textLength="103" x="851.48" y="225.4767">ImageClassifier</text><line style="stroke:#181818;stroke-width:0.5;" x1="772.23" x2="1001.23" y1="236.63" y2="236.63"/><rect fill="none" height="6" style="stroke:#C82930;stroke-width:1.0;" width="6" x="779.23" y="247.2784"/><text fill="#000000" font-family="sans-serif" font-size="14" lengthAdjust="spacing" textLength="167" x="791.23" y="253.6251">instance:ImageClassifier</text><line style="stroke:#181818;stroke-width:0.5;" x1="772.23" x2="1001.23" y1="260.9269" y2="260.9269"/><rect fill="#F24D5C" height="6" style="stroke:#C82930;stroke-width:1.0;" width="6" x="779.23" y="271.5753"/><text fill="#000000" font-family="sans-serif" font-size="14" lengthAdjust="spacing" textLength="113" x="791.23" y="277.922">ImageClassifier()</text><ellipse cx="782.23" cy="290.8722" fill="#84BE84" rx="3" ry="3" style="stroke:#038048;stroke-width:1.0;"/><text fill="#000000" font-family="sans-serif" font-size="14" lengthAdjust="spacing" textLength="205" x="791.23" y="294.2189">get­Instance():ImageClassifier</text><ellipse cx="782.23" cy="307.1691" fill="#84BE84" rx="3" ry="3" style="stroke:#038048;stroke-width:1.0;"/><text fill="#000000" font-family="sans-serif" font-size="14" lengthAdjust="spacing" textLength="146" x="791.23" y="310.5157">classify(Image):String</text></g><!--class OCRProcessor--><g id="elem_OCRProcessor"><rect codeLine="71" fill="#F1F1F1" height="113.1875" id="OCRProcessor" rx="2.5" ry="2.5" style="stroke:#181818;stroke-width:0.5;" width="229" x="1037.23" y="204.63"/><ellipse cx="1096.98" cy="220.63" fill="#ADD1B2" rx="11" ry="11" style="stroke:#181818;stroke-width:1.0;"/><path d="M1099.9488,226.2706 Q1099.3706,226.5675 1098.73,226.7081 Q1098.0894,226.8644 1097.3863,226.8644 Q1094.8863,226.8644 1093.5581,225.2238 Q1092.2456,223.5675 1092.2456,220.4425 Q1092.2456,217.3175 1093.5581,215.6613 Q1094.8863,214.005 1097.3863,214.005 Q1098.0894,214.005 1098.73,214.1613 Q1099.3863,214.3175 1099.9488,214.6144 L1099.9488,217.3331 Q1099.3238,216.755 1098.73,216.4894 Q1098.1363,216.2081 1097.5113,216.2081 Q1096.1675,216.2081 1095.48,217.2863 Q1094.7925,218.3488 1094.7925,220.4425 Q1094.7925,222.5363 1095.48,223.6144 Q1096.1675,224.6769 1097.5113,224.6769 Q1098.1363,224.6769 1098.73,224.4113 Q1099.3238,224.13 1099.9488,223.5519 L1099.9488,226.2706 Z " fill="#000000"/><text fill="#000000" font-family="sans-serif" font-size="14" lengthAdjust="spacing" textLength="101" x="1117.48" y="225.4767">OCRProcessor</text><line style="stroke:#181818;stroke-width:0.5;" x1="1038.23" x2="1265.23" y1="236.63" y2="236.63"/><rect fill="none" height="6" style="stroke:#C82930;stroke-width:1.0;" width="6" x="1045.23" y="247.2784"/><text fill="#000000" font-family="sans-serif" font-size="14" lengthAdjust="spacing" textLength="165" x="1057.23" y="253.6251">instance:OCRProcessor</text><line style="stroke:#181818;stroke-width:0.5;" x1="1038.23" x2="1265.23" y1="260.9269" y2="260.9269"/><rect fill="#F24D5C" height="6" style="stroke:#C82930;stroke-width:1.0;" width="6" x="1045.23" y="271.5753"/><text fill="#000000" font-family="sans-serif" font-size="14" lengthAdjust="spacing" textLength="111" x="1057.23" y="277.922">OCRProcessor()</text><ellipse cx="1048.23" cy="290.8722" fill="#84BE84" rx="3" ry="3" style="stroke:#038048;stroke-width:1.0;"/><text fill="#000000" font-family="sans-serif" font-size="14" lengthAdjust="spacing" textLength="203" x="1057.23" y="294.2189">get­Instance():OCRProcessor</text><ellipse cx="1048.23" cy="307.1691" fill="#84BE84" rx="3" ry="3" style="stroke:#038048;stroke-width:1.0;"/><text fill="#000000" font-family="sans-serif" font-size="14" lengthAdjust="spacing" textLength="119" x="1057.23" y="310.5157">ocr(Image):String</text></g><!--class ASRProcessor--><g id="elem_ASRProcessor"><rect codeLine="78" fill="#F1F1F1" height="113.1875" id="ASRProcessor" rx="2.5" ry="2.5" style="stroke:#181818;stroke-width:0.5;" width="226" x="510.73" y="204.63"/><ellipse cx="570.48" cy="220.63" fill="#ADD1B2" rx="11" ry="11" style="stroke:#181818;stroke-width:1.0;"/><path d="M573.4488,226.2706 Q572.8706,226.5675 572.23,226.7081 Q571.5894,226.8644 570.8863,226.8644 Q568.3863,226.8644 567.0581,225.2238 Q565.7456,223.5675 565.7456,220.4425 Q565.7456,217.3175 567.0581,215.6613 Q568.3863,214.005 570.8863,214.005 Q571.5894,214.005 572.23,214.1613 Q572.8863,214.3175 573.4488,214.6144 L573.4488,217.3331 Q572.8238,216.755 572.23,216.4894 Q571.6363,216.2081 571.0113,216.2081 Q569.6675,216.2081 568.98,217.2863 Q568.2925,218.3488 568.2925,220.4425 Q568.2925,222.5363 568.98,223.6144 Q569.6675,224.6769 571.0113,224.6769 Q571.6363,224.6769 572.23,224.4113 Q572.8238,224.13 573.4488,223.5519 L573.4488,226.2706 Z " fill="#000000"/><text fill="#000000" font-family="sans-serif" font-size="14" lengthAdjust="spacing" textLength="98" x="590.98" y="225.4767">ASRProcessor</text><line style="stroke:#181818;stroke-width:0.5;" x1="511.73" x2="735.73" y1="236.63" y2="236.63"/><rect fill="none" height="6" style="stroke:#C82930;stroke-width:1.0;" width="6" x="518.73" y="247.2784"/><text fill="#000000" font-family="sans-serif" font-size="14" lengthAdjust="spacing" textLength="162" x="530.73" y="253.6251">instance:ASRProcessor</text><line style="stroke:#181818;stroke-width:0.5;" x1="511.73" x2="735.73" y1="260.9269" y2="260.9269"/><rect fill="#F24D5C" height="6" style="stroke:#C82930;stroke-width:1.0;" width="6" x="518.73" y="271.5753"/><text fill="#000000" font-family="sans-serif" font-size="14" lengthAdjust="spacing" textLength="108" x="530.73" y="277.922">ASRProcessor()</text><ellipse cx="521.73" cy="290.8722" fill="#84BE84" rx="3" ry="3" style="stroke:#038048;stroke-width:1.0;"/><text fill="#000000" font-family="sans-serif" font-size="14" lengthAdjust="spacing" textLength="200" x="530.73" y="294.2189">get­Instance():ASRProcessor</text><ellipse cx="521.73" cy="307.1691" fill="#84BE84" rx="3" ry="3" style="stroke:#038048;stroke-width:1.0;"/><text fill="#000000" font-family="sans-serif" font-size="14" lengthAdjust="spacing" textLength="115" x="530.73" y="310.5157">asr(Video):String</text></g><!--reverse link CloudDriver to File--><g id="link_CloudDriver_File"><path codeLine="1" d="M168.49,95.22 C213.01,116.4 271.32,146.71 318.73,180.18 C324.27,184.09 329.82,188.32 335.29,192.72 " fill="none" id="CloudDriver-backto-File" style="stroke:#181818;stroke-width:1.0;"/><polygon fill="#181818" points="157.02,89.36,160.7504,95.5312,167.8817,94.4613,164.1513,88.2901,157.02,89.36" style="stroke:#181818;stroke-width:1.0;"/></g><!--reverse link CloudDriver to User--><g id="link_CloudDriver_User"><path codeLine="2" d="M64.53,116.06 C53.34,135.3 42.41,157.91 36.73,180.18 C18.95,249.99 6,277.11 36.73,342.26 C50.71,371.89 74.96,397.12 100.43,417.34 " fill="none" id="CloudDriver-backto-User" style="stroke:#181818;stroke-width:1.0;"/><polygon fill="#181818" points="71.68,105.24,65.1526,108.3049,65.4712,115.5089,71.9986,112.4441,71.68,105.24" style="stroke:#181818;stroke-width:1.0;"/></g><!--link File to User--><g id="link_File_User"><path codeLine="7" d="M335.27,333.68 C314.93,354.29 292.67,376.87 272.06,397.77 " fill="none" id="File-to-User" style="stroke:#181818;stroke-width:1.0;stroke-dasharray:7.0,7.0;"/><polygon fill="#181818" points="268.96,400.93,278.1162,397.3018,272.4596,397.3589,272.4025,391.7024,268.96,400.93" style="stroke:#181818;stroke-width:1.0;"/></g><!--link FileCreator to File--><g id="link_FileCreator_File"><path codeLine="17" d="M1309.42,67.86 C1134.92,77.91 638.8,111.9 492.73,180.18 C488.74,182.05 484.82,184.16 480.96,186.47 " fill="none" id="FileCreator-to-File" style="stroke:#181818;stroke-width:1.0;stroke-dasharray:7.0,7.0;"/><polygon fill="#181818" points="477.12,189.49,486.8741,188.1268,481.364,186.8464,482.6443,181.3364,477.12,189.49" style="stroke:#181818;stroke-width:1.0;"/></g><!--reverse link FileCreator to VideoCreator--><g id="link_FileCreator_VideoCreator"><path codeLine="21" d="M1370.73,116.93 C1370.73,152.63 1370.73,198.74 1370.73,228.87 " fill="none" id="FileCreator-backto-VideoCreator" style="stroke:#181818;stroke-width:1.0;"/><polygon fill="none" points="1363.73,117.02,1370.73,97.02,1377.73,117.02,1363.73,117.02" style="stroke:#181818;stroke-width:1.0;"/></g><!--reverse link FileCreator to ImageCreator--><g id="link_FileCreator_ImageCreator"><path codeLine="25" d="M1412.43,111.2 C1444.96,147.57 1489.26,197.1 1517.68,228.87 " fill="none" id="FileCreator-backto-ImageCreator" style="stroke:#181818;stroke-width:1.0;"/><polygon fill="none" points="1407.97,116.6,1399.85,97.02,1418.4,107.26,1407.97,116.6" style="stroke:#181818;stroke-width:1.0;"/></g><!--link Image to Multimedia--><g id="link_Image_Multimedia"><path codeLine="29" d="M701.41,515.83 C669.8,539.8 629.46,570.39 596.86,595.11 " fill="none" id="Image-to-Multimedia" style="stroke:#181818;stroke-width:1.0;stroke-dasharray:7.0,7.0;"/><polygon fill="none" points="601.29,601.29,581.13,607.8,592.83,590.14,601.29,601.29" style="stroke:#181818;stroke-width:1.0;"/></g><!--link Video to Multimedia--><g id="link_Video_Multimedia"><path codeLine="30" d="M520.54,515.62 C523.71,537.16 527.68,564.08 531.09,587.3 " fill="none" id="Video-to-Multimedia" style="stroke:#181818;stroke-width:1.0;stroke-dasharray:7.0,7.0;"/><polygon fill="none" points="538.11,585.91,534.1,606.72,524.26,587.95,538.11,585.91" style="stroke:#181818;stroke-width:1.0;"/></g><!--reverse link File to Image--><g id="link_File_Image"><path codeLine="34" d="M493.66,341.59 C554.1,378.14 578.14,373.95 633.73,402.26 C652.78,411.96 672.91,423.49 691.13,434.44 " fill="none" id="File-backto-Image" style="stroke:#181818;stroke-width:1.0;"/><polygon fill="none" points="490.22,347.06,477.07,330.45,497.71,335.23,490.22,347.06" style="stroke:#181818;stroke-width:1.0;"/></g><!--reverse link File to Video--><g id="link_File_Video"><path codeLine="39" d="M456.69,361.31 C470.01,387.19 483.6,413.63 494.29,434.4 " fill="none" id="File-backto-Video" style="stroke:#181818;stroke-width:1.0;"/><polygon fill="none" points="450.02,364.63,447.1,343.65,462.47,358.23,450.02,364.63" style="stroke:#181818;stroke-width:1.0;"/></g><!--link Image to Thumbnail--><g id="link_Image_Thumbnail"><path codeLine="44" d="M750.59,515.62 C748.88,537.05 746.74,563.81 744.9,586.94 " fill="none" id="Image-to-Thumbnail" style="stroke:#181818;stroke-width:1.0;stroke-dasharray:7.0,7.0;"/><polygon fill="none" points="751.81,587.34,743.24,606.72,737.85,586.23,751.81,587.34" style="stroke:#181818;stroke-width:1.0;"/></g><!--link Video to Thumbnail--><g id="link_Video_Thumbnail"><path codeLine="45" d="M569.73,515.83 C603.26,540.02 646.14,570.95 680.57,595.79 " fill="none" id="Video-to-Thumbnail" style="stroke:#181818;stroke-width:1.0;stroke-dasharray:7.0,7.0;"/><polygon fill="none" points="684.09,590.42,696.22,607.8,675.9,601.78,684.09,590.42" style="stroke:#181818;stroke-width:1.0;"/></g><!--link VideoTranscoder to Video--><g id="link_VideoTranscoder_Video"><path codeLine="49" d="M266.72,318.18 C323.11,353.64 394.91,398.8 446.73,431.39 " fill="none" id="VideoTranscoder-to-Video" style="stroke:#181818;stroke-width:1.0;stroke-dasharray:7.0,7.0;"/><polygon fill="#181818" points="450.69,434.5,445.1978,426.3247,446.4564,431.8397,440.9414,433.0984,450.69,434.5" style="stroke:#181818;stroke-width:1.0;"/></g><!--link ContentCensor to File--><g id="link_ContentCensor_File"><path codeLine="56" d="M405.73,120.65 C405.73,137.33 405.73,156 405.73,174.13 " fill="none" id="ContentCensor-to-File" style="stroke:#181818;stroke-width:1.0;stroke-dasharray:7.0,7.0;"/><polygon fill="#181818" points="405.73,178.74,409.7557,169.7515,405.7443,173.74,401.7557,169.7286,405.73,178.74" style="stroke:#181818;stroke-width:1.0;"/></g><!--link ImageClassifier to Image--><g id="link_ImageClassifier_Image"><path codeLine="63" d="M851.61,318.18 C829.68,353.13 801.84,397.5 781.46,429.97 " fill="none" id="ImageClassifier-to-Image" style="stroke:#181818;stroke-width:1.0;stroke-dasharray:7.0,7.0;"/><polygon fill="#181818" points="778.51,433.67,786.6853,428.1778,781.1703,429.4364,779.9116,423.9214,778.51,433.67" style="stroke:#181818;stroke-width:1.0;"/></g><!--link OCRProcessor to Image--><g id="link_OCRProcessor_Image"><path codeLine="70" d="M1061.79,318.15 C1047.82,326.43 1033.47,334.71 1019.73,342.26 C962.09,373.95 895.81,406.82 843.84,431.82 " fill="none" id="OCRProcessor-to-Image" style="stroke:#181818;stroke-width:1.0;stroke-dasharray:7.0,7.0;"/><polygon fill="#181818" points="839.53,434.37,849.374,434.0612,844.0331,432.1971,845.8973,426.8562,839.53,434.37" style="stroke:#181818;stroke-width:1.0;"/></g><!--link ASRProcessor to Video--><g id="link_ASRProcessor_Video"><path codeLine="77" d="M594.95,318.18 C577.05,352.99 554.35,397.13 537.66,429.57 " fill="none" id="ASRProcessor-to-Video" style="stroke:#181818;stroke-width:1.0;stroke-dasharray:7.0,7.0;"/><polygon fill="#181818" points="535.04,433.67,542.7142,427.4969,537.3274,429.2239,535.6004,423.8371,535.04,433.67" style="stroke:#181818;stroke-width:1.0;"/></g><!--SRC=[bLL1Rjim4Bph5JnA4Pm724M0LaK07ueMJT8xGwvb0ZGPa9IDnl6Jyec-h2H5MIigJf1Jm9cTuUncHRTIz_ox4Nimv6gr8hT2Gj5cu8C5Kp19hIMOEXQ4R7nz4qM4zBwiYRMd8a3a-le6QmCMD8hkeBbpHgZEdwnuXcQj77I-q1z10dF0cszQIt-kIVyaDULbDI5S7zG2ype76B5RQg0CzrVDNWkUKhK6gDCcXel1wQDrXZ97ffIfvXXzM3W4r9j7mTpdoukVq1_1GISaTOkXfL5att9QxsW7SoSCBPqYwvtYNz_LomtvqKidTi05BU8z2rJuSPiDPO30OngQFfIpUQ5OECzGte42GntSR_lTew92Zjhtl8RUqPG-xOLwFLVZLYTmwlICVN3RQJ2wDrHPfZaCcxB8ZFXWk292MKSLWoQZ8vbXPPKok7-lwwGRbsAch8aRZsLafyrfjMzDkHQKnTkSFbDCPlbcNAHco8LikQec1lO23cMuDNrrwH_JXWXY8zBe5gipyLcoZ8raXbr8jrJMm-SiDd_BI5RZYtCgVhQ_VndDm8w3mmancSN3L6GmS25Ofgc9PcOHwEjT5WXl6oQpG9YA30Ok1CeqDQ7MZAjr3ZJS79xESAFWw7sUFzvFlkwW3P-GcaZT2OKVOW_etisUPg26ROD_EGYhzBln7m00]--></g></svg>