<?xml version="1.0" encoding="windows-1252" standalone="no"?>
<svg xmlns="http://www.w3.org/2000/svg" xmlns:xlink="http://www.w3.org/1999/xlink" contentStyleType="text/css" height="646px" preserveAspectRatio="none" style="width:1049px;height:646px;background:#FFFFFF;" version="1.1" viewBox="0 0 1049 646" width="1049px" zoomAndPan="magnify"><defs/><g><!--class CloudDriver--><g id="elem_CloudDriver"><rect codeLine="3" fill="#F1F1F1" height="80.5938" id="CloudDriver" rx="2.5" ry="2.5" style="stroke:#181818;stroke-width:0.5;" width="112" x="7" y="7"/><ellipse cx="22" cy="23" fill="#ADD1B2" rx="11" ry="11" style="stroke:#181818;stroke-width:1.0;"/><path d="M24.9688,28.6406 Q24.3906,28.9375 23.75,29.0781 Q23.1094,29.2344 22.4063,29.2344 Q19.9063,29.2344 18.5781,27.5938 Q17.2656,25.9375 17.2656,22.8125 Q17.2656,19.6875 18.5781,18.0313 Q19.9063,16.375 22.4063,16.375 Q23.1094,16.375 23.75,16.5313 Q24.4063,16.6875 24.9688,16.9844 L24.9688,19.7031 Q24.3438,19.125 23.75,18.8594 Q23.1563,18.5781 22.5313,18.5781 Q21.1875,18.5781 20.5,19.6563 Q19.8125,20.7188 19.8125,22.8125 Q19.8125,24.9063 20.5,25.9844 Q21.1875,27.0469 22.5313,27.0469 Q23.1563,27.0469 23.75,26.7813 Q24.3438,26.5 24.9688,25.9219 L24.9688,28.6406 Z " fill="#000000"/><text fill="#000000" font-family="sans-serif" font-size="14" lengthAdjust="spacing" textLength="80" x="36" y="27.8467">CloudDriver</text><line style="stroke:#181818;stroke-width:0.5;" x1="8" x2="118" y1="39" y2="39"/><text fill="#000000" font-family="sans-serif" font-size="14" lengthAdjust="spacing" textLength="47" x="13" y="55.9951">file:File</text><text fill="#000000" font-family="sans-serif" font-size="14" lengthAdjust="spacing" textLength="68" x="13" y="72.292">user:User</text><line style="stroke:#181818;stroke-width:0.5;" x1="8" x2="118" y1="79.5938" y2="79.5938"/></g><!--class File--><g id="elem_File"><rect codeLine="8" fill="#F1F1F1" height="162.0781" id="File" rx="2.5" ry="2.5" style="stroke:#181818;stroke-width:0.5;" width="140" x="116" y="147.59"/><ellipse cx="170.25" cy="163.59" fill="#ADD1B2" rx="11" ry="11" style="stroke:#181818;stroke-width:1.0;"/><path d="M173.2188,169.2306 Q172.6406,169.5275 172,169.6681 Q171.3594,169.8244 170.6563,169.8244 Q168.1563,169.8244 166.8281,168.1837 Q165.5156,166.5275 165.5156,163.4025 Q165.5156,160.2775 166.8281,158.6212 Q168.1563,156.965 170.6563,156.965 Q171.3594,156.965 172,157.1212 Q172.6563,157.2775 173.2188,157.5744 L173.2188,160.2931 Q172.5938,159.715 172,159.4494 Q171.4063,159.1681 170.7813,159.1681 Q169.4375,159.1681 168.75,160.2462 Q168.0625,161.3087 168.0625,163.4025 Q168.0625,165.4962 168.75,166.5744 Q169.4375,167.6369 170.7813,167.6369 Q171.4063,167.6369 172,167.3712 Q172.5938,167.09 173.2188,166.5119 L173.2188,169.2306 Z " fill="#000000"/><text fill="#000000" font-family="sans-serif" font-size="14" lengthAdjust="spacing" textLength="23" x="190.75" y="168.4367">File</text><line style="stroke:#181818;stroke-width:0.5;" x1="117" x2="255" y1="179.59" y2="179.59"/><text fill="#000000" font-family="sans-serif" font-size="14" lengthAdjust="spacing" textLength="84" x="122" y="196.5851">name:String</text><text fill="#000000" font-family="sans-serif" font-size="14" lengthAdjust="spacing" textLength="82" x="122" y="212.882">size:Integer</text><text fill="#000000" font-family="sans-serif" font-size="14" lengthAdjust="spacing" textLength="96" x="122" y="229.1789">selected:Bool</text><line style="stroke:#181818;stroke-width:0.5;" x1="117" x2="255" y1="236.4806" y2="236.4806"/><ellipse cx="127" cy="250.1291" fill="#84BE84" rx="3" ry="3" style="stroke:#038048;stroke-width:1.0;"/><text fill="#000000" font-family="sans-serif" font-size="14" lengthAdjust="spacing" textLength="93" x="136" y="253.4757">upload():Bool</text><ellipse cx="127" cy="266.4259" fill="#84BE84" rx="3" ry="3" style="stroke:#038048;stroke-width:1.0;"/><text fill="#000000" font-family="sans-serif" font-size="14" lengthAdjust="spacing" textLength="113" x="136" y="269.7726">download():Bool</text><ellipse cx="127" cy="282.7228" fill="#84BE84" rx="3" ry="3" style="stroke:#038048;stroke-width:1.0;"/><text fill="#000000" font-family="sans-serif" font-size="14" lengthAdjust="spacing" textLength="90" x="136" y="286.0695">delete():Bool</text><ellipse cx="127" cy="299.0197" fill="#84BE84" rx="3" ry="3" style="stroke:#038048;stroke-width:1.0;"/><text fill="#000000" font-family="sans-serif" font-size="14" lengthAdjust="spacing" textLength="114" x="136" y="302.3664">share(User):void</text></g><!--class User--><g id="elem_User"><rect codeLine="52" fill="#F1F1F1" height="145.7813" id="User" rx="2.5" ry="2.5" style="stroke:#181818;stroke-width:0.5;" width="192" x="50" y="369.67"/><ellipse cx="125.75" cy="385.67" fill="#ADD1B2" rx="11" ry="11" style="stroke:#181818;stroke-width:1.0;"/><path d="M128.7188,391.3106 Q128.1406,391.6075 127.5,391.7481 Q126.8594,391.9044 126.1563,391.9044 Q123.6563,391.9044 122.3281,390.2638 Q121.0156,388.6075 121.0156,385.4825 Q121.0156,382.3575 122.3281,380.7013 Q123.6563,379.045 126.1563,379.045 Q126.8594,379.045 127.5,379.2013 Q128.1563,379.3575 128.7188,379.6544 L128.7188,382.3731 Q128.0938,381.795 127.5,381.5294 Q126.9063,381.2481 126.2813,381.2481 Q124.9375,381.2481 124.25,382.3263 Q123.5625,383.3888 123.5625,385.4825 Q123.5625,387.5763 124.25,388.6544 Q124.9375,389.7169 126.2813,389.7169 Q126.9063,389.7169 127.5,389.4513 Q128.0938,389.17 128.7188,388.5919 L128.7188,391.3106 Z " fill="#000000"/><text fill="#000000" font-family="sans-serif" font-size="14" lengthAdjust="spacing" textLength="32" x="146.25" y="390.5167">User</text><line style="stroke:#181818;stroke-width:0.5;" x1="51" x2="241" y1="401.67" y2="401.67"/><text fill="#000000" font-family="sans-serif" font-size="14" lengthAdjust="spacing" textLength="66" x="56" y="418.6651">id:Integer</text><text fill="#000000" font-family="sans-serif" font-size="14" lengthAdjust="spacing" textLength="84" x="56" y="434.962">name:String</text><text fill="#000000" font-family="sans-serif" font-size="14" lengthAdjust="spacing" textLength="112" x="56" y="451.2589">password:String</text><line style="stroke:#181818;stroke-width:0.5;" x1="51" x2="241" y1="458.5606" y2="458.5606"/><ellipse cx="61" cy="472.2091" fill="#84BE84" rx="3" ry="3" style="stroke:#038048;stroke-width:1.0;"/><text fill="#000000" font-family="sans-serif" font-size="14" lengthAdjust="spacing" textLength="79" x="70" y="475.5557">login():Bool</text><ellipse cx="61" cy="488.5059" fill="#84BE84" rx="3" ry="3" style="stroke:#038048;stroke-width:1.0;"/><text fill="#000000" font-family="sans-serif" font-size="14" lengthAdjust="spacing" textLength="90" x="70" y="491.8526">logout():Bool</text><ellipse cx="61" cy="504.8028" fill="#84BE84" rx="3" ry="3" style="stroke:#038048;stroke-width:1.0;"/><text fill="#000000" font-family="sans-serif" font-size="14" lengthAdjust="spacing" textLength="166" x="70" y="508.1495">searchUser(String):User</text></g><!--class Image--><g id="elem_Image"><rect codeLine="18" fill="#F1F1F1" height="80.5938" id="Image" rx="2.5" ry="2.5" style="stroke:#181818;stroke-width:0.5;" width="204" x="636" y="402.27"/><ellipse cx="712.75" cy="418.27" fill="#ADD1B2" rx="11" ry="11" style="stroke:#181818;stroke-width:1.0;"/><path d="M715.7188,423.9106 Q715.1406,424.2075 714.5,424.3481 Q713.8594,424.5044 713.1563,424.5044 Q710.6563,424.5044 709.3281,422.8638 Q708.0156,421.2075 708.0156,418.0825 Q708.0156,414.9575 709.3281,413.3013 Q710.6563,411.645 713.1563,411.645 Q713.8594,411.645 714.5,411.8013 Q715.1563,411.9575 715.7188,412.2544 L715.7188,414.9731 Q715.0938,414.395 714.5,414.1294 Q713.9063,413.8481 713.2813,413.8481 Q711.9375,413.8481 711.25,414.9263 Q710.5625,415.9888 710.5625,418.0825 Q710.5625,420.1763 711.25,421.2544 Q711.9375,422.3169 713.2813,422.3169 Q713.9063,422.3169 714.5,422.0513 Q715.0938,421.77 715.7188,421.1919 L715.7188,423.9106 Z " fill="#000000"/><text fill="#000000" font-family="sans-serif" font-size="14" lengthAdjust="spacing" textLength="42" x="733.25" y="423.1167">Image</text><line style="stroke:#181818;stroke-width:0.5;" x1="637" x2="839" y1="434.27" y2="434.27"/><line style="stroke:#181818;stroke-width:0.5;" x1="637" x2="839" y1="442.27" y2="442.27"/><ellipse cx="647" cy="455.9184" fill="#84BE84" rx="3" ry="3" style="stroke:#038048;stroke-width:1.0;"/><text fill="#000000" font-family="sans-serif" font-size="14" lengthAdjust="spacing" textLength="178" x="656" y="459.2651">generateThumbnail():void</text><ellipse cx="647" cy="472.2153" fill="#84BE84" rx="3" ry="3" style="stroke:#038048;stroke-width:1.0;"/><text fill="#000000" font-family="sans-serif" font-size="14" lengthAdjust="spacing" textLength="80" x="656" y="475.562">show():void</text></g><!--class Video--><g id="elem_Video"><rect codeLine="23" fill="#F1F1F1" height="80.5938" id="Video" rx="2.5" ry="2.5" style="stroke:#181818;stroke-width:0.5;" width="204" x="321" y="402.27"/><ellipse cx="399.25" cy="418.27" fill="#ADD1B2" rx="11" ry="11" style="stroke:#181818;stroke-width:1.0;"/><path d="M402.2188,423.9106 Q401.6406,424.2075 401,424.3481 Q400.3594,424.5044 399.6563,424.5044 Q397.1563,424.5044 395.8281,422.8638 Q394.5156,421.2075 394.5156,418.0825 Q394.5156,414.9575 395.8281,413.3013 Q397.1563,411.645 399.6563,411.645 Q400.3594,411.645 401,411.8013 Q401.6563,411.9575 402.2188,412.2544 L402.2188,414.9731 Q401.5938,414.395 401,414.1294 Q400.4063,413.8481 399.7813,413.8481 Q398.4375,413.8481 397.75,414.9263 Q397.0625,415.9888 397.0625,418.0825 Q397.0625,420.1763 397.75,421.2544 Q398.4375,422.3169 399.7813,422.3169 Q400.4063,422.3169 401,422.0513 Q401.5938,421.77 402.2188,421.1919 L402.2188,423.9106 Z " fill="#000000"/><text fill="#000000" font-family="sans-serif" font-size="14" lengthAdjust="spacing" textLength="39" x="419.75" y="423.1167">Video</text><line style="stroke:#181818;stroke-width:0.5;" x1="322" x2="524" y1="434.27" y2="434.27"/><line style="stroke:#181818;stroke-width:0.5;" x1="322" x2="524" y1="442.27" y2="442.27"/><ellipse cx="332" cy="455.9184" fill="#84BE84" rx="3" ry="3" style="stroke:#038048;stroke-width:1.0;"/><text fill="#000000" font-family="sans-serif" font-size="14" lengthAdjust="spacing" textLength="178" x="341" y="459.2651">generateThumbnail():void</text><ellipse cx="332" cy="472.2153" fill="#84BE84" rx="3" ry="3" style="stroke:#038048;stroke-width:1.0;"/><text fill="#000000" font-family="sans-serif" font-size="14" lengthAdjust="spacing" textLength="70" x="341" y="475.562">play():void</text></g><!--class Thumbnail--><g id="elem_Thumbnail"><rect codeLine="29" fill="#F1F1F1" height="64.2969" id="Thumbnail" rx="2.5" ry="2.5" style="stroke:#181818;stroke-width:0.5;" width="204" x="440" y="575.45"/><ellipse cx="501.75" cy="591.45" fill="#B4A7E5" rx="11" ry="11" style="stroke:#181818;stroke-width:1.0;"/><path d="M497.6719,587.2156 L497.6719,585.0594 L505.0625,585.0594 L505.0625,587.2156 L502.5938,587.2156 L502.5938,595.2938 L505.0625,595.2938 L505.0625,597.45 L497.6719,597.45 L497.6719,595.2938 L500.1406,595.2938 L500.1406,587.2156 L497.6719,587.2156 Z " fill="#000000"/><text fill="#000000" font-family="sans-serif" font-size="14" font-style="italic" lengthAdjust="spacing" textLength="72" x="522.25" y="596.2967">Thumbnail</text><line style="stroke:#181818;stroke-width:0.5;" x1="441" x2="643" y1="607.45" y2="607.45"/><line style="stroke:#181818;stroke-width:0.5;" x1="441" x2="643" y1="615.45" y2="615.45"/><ellipse cx="451" cy="629.0984" fill="#84BE84" rx="3" ry="3" style="stroke:#038048;stroke-width:1.0;"/><text fill="#000000" font-family="sans-serif" font-size="14" lengthAdjust="spacing" textLength="178" x="460" y="632.4451">generateThumbnail():void</text></g><!--class VideoTranscoder--><g id="elem_VideoTranscoder"><rect codeLine="33" fill="#F1F1F1" height="64.2969" id="VideoTranscoder" rx="2.5" ry="2.5" style="stroke:#181818;stroke-width:0.5;" width="189" x="290.5" y="196.48"/><ellipse cx="323.05" cy="212.48" fill="#ADD1B2" rx="11" ry="11" style="stroke:#181818;stroke-width:1.0;"/><path d="M326.0188,218.1206 Q325.4406,218.4175 324.8,218.5581 Q324.1594,218.7144 323.4563,218.7144 Q320.9563,218.7144 319.6281,217.0738 Q318.3156,215.4175 318.3156,212.2925 Q318.3156,209.1675 319.6281,207.5113 Q320.9563,205.855 323.4563,205.855 Q324.1594,205.855 324.8,206.0113 Q325.4563,206.1675 326.0188,206.4644 L326.0188,209.1831 Q325.3938,208.605 324.8,208.3394 Q324.2063,208.0581 323.5813,208.0581 Q322.2375,208.0581 321.55,209.1363 Q320.8625,210.1988 320.8625,212.2925 Q320.8625,214.3863 321.55,215.4644 Q322.2375,216.5269 323.5813,216.5269 Q324.2063,216.5269 324.8,216.2613 Q325.3938,215.98 326.0188,215.4019 L326.0188,218.1206 Z " fill="#000000"/><text fill="#000000" font-family="sans-serif" font-size="14" lengthAdjust="spacing" textLength="118" x="340.95" y="217.3267">VideoTranscoder</text><line style="stroke:#181818;stroke-width:0.5;" x1="291.5" x2="478.5" y1="228.48" y2="228.48"/><line style="stroke:#181818;stroke-width:0.5;" x1="291.5" x2="478.5" y1="236.48" y2="236.48"/><ellipse cx="301.5" cy="250.1284" fill="#84BE84" rx="3" ry="3" style="stroke:#038048;stroke-width:1.0;"/><text fill="#000000" font-family="sans-serif" font-size="14" lengthAdjust="spacing" textLength="163" x="310.5" y="253.4751">transcode(Video):Video</text></g><!--class ContentCensor--><g id="elem_ContentCensor"><rect codeLine="37" fill="#F1F1F1" height="64.2969" id="ContentCensor" rx="2.5" ry="2.5" style="stroke:#181818;stroke-width:0.5;" width="139" x="154.5" y="15.15"/><ellipse cx="169.95" cy="31.15" fill="#ADD1B2" rx="11" ry="11" style="stroke:#181818;stroke-width:1.0;"/><path d="M172.9188,36.7906 Q172.3406,37.0875 171.7,37.2281 Q171.0594,37.3844 170.3563,37.3844 Q167.8563,37.3844 166.5281,35.7437 Q165.2156,34.0875 165.2156,30.9625 Q165.2156,27.8375 166.5281,26.1812 Q167.8563,24.525 170.3563,24.525 Q171.0594,24.525 171.7,24.6812 Q172.3563,24.8375 172.9188,25.1344 L172.9188,27.8531 Q172.2938,27.275 171.7,27.0094 Q171.1063,26.7281 170.4813,26.7281 Q169.1375,26.7281 168.45,27.8062 Q167.7625,28.8687 167.7625,30.9625 Q167.7625,33.0562 168.45,34.1344 Q169.1375,35.1969 170.4813,35.1969 Q171.1063,35.1969 171.7,34.9312 Q172.2938,34.65 172.9188,34.0719 L172.9188,36.7906 Z " fill="#000000"/><text fill="#000000" font-family="sans-serif" font-size="14" lengthAdjust="spacing" textLength="106" x="184.05" y="35.9967">ContentCensor</text><line style="stroke:#181818;stroke-width:0.5;" x1="155.5" x2="292.5" y1="47.15" y2="47.15"/><line style="stroke:#181818;stroke-width:0.5;" x1="155.5" x2="292.5" y1="55.15" y2="55.15"/><ellipse cx="165.5" cy="68.7984" fill="#84BE84" rx="3" ry="3" style="stroke:#038048;stroke-width:1.0;"/><text fill="#000000" font-family="sans-serif" font-size="14" lengthAdjust="spacing" textLength="113" x="174.5" y="72.1451">review(File):Bool</text></g><!--class ImageClassifier--><g id="elem_ImageClassifier"><rect codeLine="41" fill="#F1F1F1" height="64.2969" id="ImageClassifier" rx="2.5" ry="2.5" style="stroke:#181818;stroke-width:0.5;" width="172" x="690" y="196.48"/><ellipse cx="721.65" cy="212.48" fill="#ADD1B2" rx="11" ry="11" style="stroke:#181818;stroke-width:1.0;"/><path d="M724.6188,218.1206 Q724.0406,218.4175 723.4,218.5581 Q722.7594,218.7144 722.0563,218.7144 Q719.5563,218.7144 718.2281,217.0738 Q716.9156,215.4175 716.9156,212.2925 Q716.9156,209.1675 718.2281,207.5113 Q719.5563,205.855 722.0563,205.855 Q722.7594,205.855 723.4,206.0113 Q724.0563,206.1675 724.6188,206.4644 L724.6188,209.1831 Q723.9938,208.605 723.4,208.3394 Q722.8063,208.0581 722.1813,208.0581 Q720.8375,208.0581 720.15,209.1363 Q719.4625,210.1988 719.4625,212.2925 Q719.4625,214.3863 720.15,215.4644 Q720.8375,216.5269 722.1813,216.5269 Q722.8063,216.5269 723.4,216.2613 Q723.9938,215.98 724.6188,215.4019 L724.6188,218.1206 Z " fill="#000000"/><text fill="#000000" font-family="sans-serif" font-size="14" lengthAdjust="spacing" textLength="103" x="739.35" y="217.3267">ImageClassifier</text><line style="stroke:#181818;stroke-width:0.5;" x1="691" x2="861" y1="228.48" y2="228.48"/><line style="stroke:#181818;stroke-width:0.5;" x1="691" x2="861" y1="236.48" y2="236.48"/><ellipse cx="701" cy="250.1284" fill="#84BE84" rx="3" ry="3" style="stroke:#038048;stroke-width:1.0;"/><text fill="#000000" font-family="sans-serif" font-size="14" lengthAdjust="spacing" textLength="146" x="710" y="253.4751">classify(Image):String</text></g><!--class OCRProcessor--><g id="elem_OCRProcessor"><rect codeLine="45" fill="#F1F1F1" height="64.2969" id="OCRProcessor" rx="2.5" ry="2.5" style="stroke:#181818;stroke-width:0.5;" width="145" x="897.5" y="196.48"/><ellipse cx="917.9" cy="212.48" fill="#ADD1B2" rx="11" ry="11" style="stroke:#181818;stroke-width:1.0;"/><path d="M920.8688,218.1206 Q920.2906,218.4175 919.65,218.5581 Q919.0094,218.7144 918.3063,218.7144 Q915.8063,218.7144 914.4781,217.0738 Q913.1656,215.4175 913.1656,212.2925 Q913.1656,209.1675 914.4781,207.5113 Q915.8063,205.855 918.3063,205.855 Q919.0094,205.855 919.65,206.0113 Q920.3063,206.1675 920.8688,206.4644 L920.8688,209.1831 Q920.2438,208.605 919.65,208.3394 Q919.0563,208.0581 918.4313,208.0581 Q917.0875,208.0581 916.4,209.1363 Q915.7125,210.1988 915.7125,212.2925 Q915.7125,214.3863 916.4,215.4644 Q917.0875,216.5269 918.4313,216.5269 Q919.0563,216.5269 919.65,216.2613 Q920.2438,215.98 920.8688,215.4019 L920.8688,218.1206 Z " fill="#000000"/><text fill="#000000" font-family="sans-serif" font-size="14" lengthAdjust="spacing" textLength="101" x="933.1" y="217.3267">OCRProcessor</text><line style="stroke:#181818;stroke-width:0.5;" x1="898.5" x2="1041.5" y1="228.48" y2="228.48"/><line style="stroke:#181818;stroke-width:0.5;" x1="898.5" x2="1041.5" y1="236.48" y2="236.48"/><ellipse cx="908.5" cy="250.1284" fill="#84BE84" rx="3" ry="3" style="stroke:#038048;stroke-width:1.0;"/><text fill="#000000" font-family="sans-serif" font-size="14" lengthAdjust="spacing" textLength="119" x="917.5" y="253.4751">ocr(Image):String</text></g><!--class ASRProcessor--><g id="elem_ASRProcessor"><rect codeLine="49" fill="#F1F1F1" height="64.2969" id="ASRProcessor" rx="2.5" ry="2.5" style="stroke:#181818;stroke-width:0.5;" width="141" x="514.5" y="196.48"/><ellipse cx="534.45" cy="212.48" fill="#ADD1B2" rx="11" ry="11" style="stroke:#181818;stroke-width:1.0;"/><path d="M537.4188,218.1206 Q536.8406,218.4175 536.2,218.5581 Q535.5594,218.7144 534.8563,218.7144 Q532.3563,218.7144 531.0281,217.0738 Q529.7156,215.4175 529.7156,212.2925 Q529.7156,209.1675 531.0281,207.5113 Q532.3563,205.855 534.8563,205.855 Q535.5594,205.855 536.2,206.0113 Q536.8563,206.1675 537.4188,206.4644 L537.4188,209.1831 Q536.7938,208.605 536.2,208.3394 Q535.6063,208.0581 534.9813,208.0581 Q533.6375,208.0581 532.95,209.1363 Q532.2625,210.1988 532.2625,212.2925 Q532.2625,214.3863 532.95,215.4644 Q533.6375,216.5269 534.9813,216.5269 Q535.6063,216.5269 536.2,216.2613 Q536.7938,215.98 537.4188,215.4019 L537.4188,218.1206 Z " fill="#000000"/><text fill="#000000" font-family="sans-serif" font-size="14" lengthAdjust="spacing" textLength="98" x="549.55" y="217.3267">ASRProcessor</text><line style="stroke:#181818;stroke-width:0.5;" x1="515.5" x2="654.5" y1="228.48" y2="228.48"/><line style="stroke:#181818;stroke-width:0.5;" x1="515.5" x2="654.5" y1="236.48" y2="236.48"/><ellipse cx="525.5" cy="250.1284" fill="#84BE84" rx="3" ry="3" style="stroke:#038048;stroke-width:1.0;"/><text fill="#000000" font-family="sans-serif" font-size="14" lengthAdjust="spacing" textLength="115" x="534.5" y="253.4751">asr(Video):String</text></g><!--reverse link CloudDriver to File--><g id="link_CloudDriver_File"><path codeLine="1" d="M97.62,98.77 C107.94,113.82 119.52,130.7 130.81,147.16 " fill="none" id="CloudDriver-backto-File" style="stroke:#181818;stroke-width:1.0;"/><polygon fill="#181818" points="89.99,88.65,90.0844,95.8605,96.7766,98.5466,96.6822,91.3361,89.99,88.65" style="stroke:#181818;stroke-width:1.0;"/></g><!--reverse link CloudDriver to User--><g id="link_CloudDriver_User"><path codeLine="2" d="M67.11,101.58 C71.97,154.82 81.67,238.75 99,309.67 C103.82,329.39 110.49,350.28 117.3,369.47 " fill="none" id="CloudDriver-backto-User" style="stroke:#181818;stroke-width:1.0;"/><polygon fill="#181818" points="65.89,88.74,62.4333,95.0686,66.9455,100.6935,70.4022,94.3649,65.89,88.74" style="stroke:#181818;stroke-width:1.0;"/></g><!--link File to User--><g id="link_File_User"><path codeLine="7" d="M170.82,310.06 C167.52,327.52 164.04,345.97 160.76,363.35 " fill="none" id="File-to-User" style="stroke:#181818;stroke-width:1.0;stroke-dasharray:7.0,7.0;"/><polygon fill="#181818" points="159.66,368.19,165.2615,360.0892,160.5883,363.2769,157.4006,358.6038,159.66,368.19" style="stroke:#181818;stroke-width:1.0;"/></g><!--reverse link File to Image--><g id="link_File_Image"><path codeLine="17" d="M274.86,309.05 C386.11,363.41 430.43,336.92 542,369.67 C573.47,378.91 607.19,390.6 637.63,401.86 " fill="none" id="File-backto-Image" style="stroke:#181818;stroke-width:1.0;"/><polygon fill="none" points="272.03,314.95,257.41,299.61,278.41,302.48,272.03,314.95" style="stroke:#181818;stroke-width:1.0;"/></g><!--reverse link File to Video--><g id="link_File_Video"><path codeLine="22" d="M271.71,308.51 C272.14,308.9 272.57,309.29 273,309.67 C307.81,340.98 347.62,375.94 377.47,402 " fill="none" id="File-backto-Video" style="stroke:#181818;stroke-width:1.0;"/><polygon fill="none" points="267.28,314.04,257.15,295.42,276.67,303.66,267.28,314.04" style="stroke:#181818;stroke-width:1.0;"/></g><!--link Image to Thumbnail--><g id="link_Image_Thumbnail"><path codeLine="27" d="M690.3,483.24 C661.75,506.99 625.39,537.24 595.82,561.84 " fill="none" id="Image-to-Thumbnail" style="stroke:#181818;stroke-width:1.0;stroke-dasharray:7.0,7.0;"/><polygon fill="none" points="600.59,567.8,580.74,575.21,591.64,557.04,600.59,567.8" style="stroke:#181818;stroke-width:1.0;"/></g><!--link Video to Thumbnail--><g id="link_Video_Thumbnail"><path codeLine="28" d="M451.81,483.03 C468.33,505.67 489.21,534.27 506.71,558.25 " fill="none" id="Video-to-Thumbnail" style="stroke:#181818;stroke-width:1.0;stroke-dasharray:7.0,7.0;"/><polygon fill="none" points="512.89,553.85,519.03,574.13,501.58,562.1,512.89,553.85" style="stroke:#181818;stroke-width:1.0;"/></g><!--link VideoTranscoder to Video--><g id="link_VideoTranscoder_Video"><path codeLine="32" d="M390.61,260.9 C397,296.57 407.52,355.21 414.82,395.97 " fill="none" id="VideoTranscoder-to-Video" style="stroke:#181818;stroke-width:1.0;stroke-dasharray:7.0,7.0;"/><polygon fill="#181818" points="415.88,400.84,418.225,391.2744,414.9956,395.9188,410.3512,392.6894,415.88,400.84" style="stroke:#181818;stroke-width:1.0;"/></g><!--link ContentCensor to File--><g id="link_ContentCensor_File"><path codeLine="36" d="M217.38,79.53 C213.7,96.93 208.91,119.51 204.19,141.79 " fill="none" id="ContentCensor-to-File" style="stroke:#181818;stroke-width:1.0;stroke-dasharray:7.0,7.0;"/><polygon fill="#181818" points="202.99,146.44,208.7806,138.4733,204.0337,141.5502,200.9569,136.8033,202.99,146.44" style="stroke:#181818;stroke-width:1.0;"/></g><!--link ImageClassifier to Image--><g id="link_ImageClassifier_Image"><path codeLine="40" d="M770.39,260.9 C764,296.57 753.48,355.21 746.18,395.97 " fill="none" id="ImageClassifier-to-Image" style="stroke:#181818;stroke-width:1.0;stroke-dasharray:7.0,7.0;"/><polygon fill="#181818" points="745.12,400.84,750.6488,392.6894,746.0044,395.9188,742.775,391.2744,745.12,400.84" style="stroke:#181818;stroke-width:1.0;"/></g><!--link OCRProcessor to Image--><g id="link_OCRProcessor_Image"><path codeLine="44" d="M935.52,261.13 C895.78,297.44 830.22,357.32 785.63,398.05 " fill="none" id="OCRProcessor-to-Image" style="stroke:#181818;stroke-width:1.0;stroke-dasharray:7.0,7.0;"/><polygon fill="#181818" points="782.38,400.93,791.7206,397.8069,786.0693,397.5553,786.321,391.904,782.38,400.93" style="stroke:#181818;stroke-width:1.0;"/></g><!--link ASRProcessor to Video--><g id="link_ASRProcessor_Video"><path codeLine="48" d="M561.1,260.9 C533.5,297.01 487.91,356.65 456.71,397.46 " fill="none" id="ASRProcessor-to-Video" style="stroke:#181818;stroke-width:1.0;stroke-dasharray:7.0,7.0;"/><polygon fill="#181818" points="453.36,400.84,461.9982,396.109,456.3919,396.8642,455.6368,391.2579,453.36,400.84" style="stroke:#181818;stroke-width:1.0;"/></g><!--SRC=[ZPDDJiCm48NtEOMN3XKzG8GgGH1ILo1Qs1jxcbfoxSfs6fKsTyT_QTm62NRnc_U-J3oJMgYMFMj-08tkxk_H2nTGr3VYXm5TK46CGNdfL22qSVugX11gdQqAthxm4fhF5tdMQpuZoGwgbTLSDkva-3TKIscXSKPt107K0gkUb1BkF4FjNYZ2S3agJ7LoehcSXLmnMw81-_UNrK5nDdJrS7QVjDoH1b9VuVaKCWr8qCJ2UjlklYJX0gTi1AeE_yBwv0nKOeNdVx3sWXn7LkZ0NTTvWIxk8g1kHUukIcy8XL7xusrz1AqraOOgvkRcnpBfEQj7e1q47Efb5IDzKIlNWxGrIACYBCm_xKTUZ20D1muTzgOqdVJ1jK_m3KyjJKOorYE8nlCHXsevh51VlDRlRrfHC4D3EIelHewYUe9uNDqWyWlAYn51Z1wkvOA8NhzltiDPjjJN6xztlavfDYep95J3PRwzJb2jlTfd89fkFH_7O9b-jXy0]--></g></svg>