<?xml version="1.0" encoding="windows-1252" standalone="no"?>
<svg xmlns="http://www.w3.org/2000/svg" xmlns:xlink="http://www.w3.org/1999/xlink" contentStyleType="text/css" height="646px" preserveAspectRatio="none" style="width:1326px;height:646px;background:#FFFFFF;" version="1.1" viewBox="0 0 1326 646" width="1326px" zoomAndPan="magnify"><defs/><g><!--class CloudDriver--><g id="elem_CloudDriver"><rect codeLine="3" fill="#F1F1F1" height="80.5938" id="CloudDriver" rx="2.5" ry="2.5" style="stroke:#181818;stroke-width:0.5;" width="112" x="27.16" y="7"/><ellipse cx="42.16" cy="23" fill="#ADD1B2" rx="11" ry="11" style="stroke:#181818;stroke-width:1.0;"/><path d="M45.1288,28.6406 Q44.5506,28.9375 43.91,29.0781 Q43.2694,29.2344 42.5663,29.2344 Q40.0663,29.2344 38.7381,27.5938 Q37.4256,25.9375 37.4256,22.8125 Q37.4256,19.6875 38.7381,18.0313 Q40.0663,16.375 42.5663,16.375 Q43.2694,16.375 43.91,16.5313 Q44.5663,16.6875 45.1288,16.9844 L45.1288,19.7031 Q44.5038,19.125 43.91,18.8594 Q43.3163,18.5781 42.6913,18.5781 Q41.3475,18.5781 40.66,19.6563 Q39.9725,20.7188 39.9725,22.8125 Q39.9725,24.9063 40.66,25.9844 Q41.3475,27.0469 42.6913,27.0469 Q43.3163,27.0469 43.91,26.7813 Q44.5038,26.5 45.1288,25.9219 L45.1288,28.6406 Z " fill="#000000"/><text fill="#000000" font-family="sans-serif" font-size="14" lengthAdjust="spacing" textLength="80" x="56.16" y="27.8467">CloudDriver</text><line style="stroke:#181818;stroke-width:0.5;" x1="28.16" x2="138.16" y1="39" y2="39"/><text fill="#000000" font-family="sans-serif" font-size="14" lengthAdjust="spacing" textLength="47" x="33.16" y="55.9951">file:File</text><text fill="#000000" font-family="sans-serif" font-size="14" lengthAdjust="spacing" textLength="68" x="33.16" y="72.292">user:User</text><line style="stroke:#181818;stroke-width:0.5;" x1="28.16" x2="138.16" y1="79.5938" y2="79.5938"/></g><!--class File--><g id="elem_File"><rect codeLine="8" fill="#F1F1F1" height="162.0781" id="File" rx="2.5" ry="2.5" style="stroke:#181818;stroke-width:0.5;" width="140" x="267.16" y="147.59"/><ellipse cx="321.41" cy="163.59" fill="#ADD1B2" rx="11" ry="11" style="stroke:#181818;stroke-width:1.0;"/><path d="M324.3788,169.2306 Q323.8006,169.5275 323.16,169.6681 Q322.5194,169.8244 321.8163,169.8244 Q319.3163,169.8244 317.9881,168.1837 Q316.6756,166.5275 316.6756,163.4025 Q316.6756,160.2775 317.9881,158.6212 Q319.3163,156.965 321.8163,156.965 Q322.5194,156.965 323.16,157.1212 Q323.8163,157.2775 324.3788,157.5744 L324.3788,160.2931 Q323.7538,159.715 323.16,159.4494 Q322.5663,159.1681 321.9413,159.1681 Q320.5975,159.1681 319.91,160.2462 Q319.2225,161.3087 319.2225,163.4025 Q319.2225,165.4962 319.91,166.5744 Q320.5975,167.6369 321.9413,167.6369 Q322.5663,167.6369 323.16,167.3712 Q323.7538,167.09 324.3788,166.5119 L324.3788,169.2306 Z " fill="#000000"/><text fill="#000000" font-family="sans-serif" font-size="14" lengthAdjust="spacing" textLength="23" x="341.91" y="168.4367">File</text><line style="stroke:#181818;stroke-width:0.5;" x1="268.16" x2="406.16" y1="179.59" y2="179.59"/><text fill="#000000" font-family="sans-serif" font-size="14" lengthAdjust="spacing" textLength="84" x="273.16" y="196.5851">name:String</text><text fill="#000000" font-family="sans-serif" font-size="14" lengthAdjust="spacing" textLength="82" x="273.16" y="212.882">size:Integer</text><text fill="#000000" font-family="sans-serif" font-size="14" lengthAdjust="spacing" textLength="96" x="273.16" y="229.1789">selected:Bool</text><line style="stroke:#181818;stroke-width:0.5;" x1="268.16" x2="406.16" y1="236.4806" y2="236.4806"/><ellipse cx="278.16" cy="250.1291" fill="#84BE84" rx="3" ry="3" style="stroke:#038048;stroke-width:1.0;"/><text fill="#000000" font-family="sans-serif" font-size="14" lengthAdjust="spacing" textLength="93" x="287.16" y="253.4757">upload():Bool</text><ellipse cx="278.16" cy="266.4259" fill="#84BE84" rx="3" ry="3" style="stroke:#038048;stroke-width:1.0;"/><text fill="#000000" font-family="sans-serif" font-size="14" lengthAdjust="spacing" textLength="113" x="287.16" y="269.7726">download():Bool</text><ellipse cx="278.16" cy="282.7228" fill="#84BE84" rx="3" ry="3" style="stroke:#038048;stroke-width:1.0;"/><text fill="#000000" font-family="sans-serif" font-size="14" lengthAdjust="spacing" textLength="90" x="287.16" y="286.0695">delete():Bool</text><ellipse cx="278.16" cy="299.0197" fill="#84BE84" rx="3" ry="3" style="stroke:#038048;stroke-width:1.0;"/><text fill="#000000" font-family="sans-serif" font-size="14" lengthAdjust="spacing" textLength="114" x="287.16" y="302.3664">share(User):void</text></g><!--class User--><g id="elem_User"><rect codeLine="69" fill="#F1F1F1" height="145.7813" id="User" rx="2.5" ry="2.5" style="stroke:#181818;stroke-width:0.5;" width="192" x="14.16" y="369.67"/><ellipse cx="89.91" cy="385.67" fill="#ADD1B2" rx="11" ry="11" style="stroke:#181818;stroke-width:1.0;"/><path d="M92.8788,391.3106 Q92.3006,391.6075 91.66,391.7481 Q91.0194,391.9044 90.3163,391.9044 Q87.8163,391.9044 86.4881,390.2638 Q85.1756,388.6075 85.1756,385.4825 Q85.1756,382.3575 86.4881,380.7013 Q87.8163,379.045 90.3163,379.045 Q91.0194,379.045 91.66,379.2013 Q92.3163,379.3575 92.8788,379.6544 L92.8788,382.3731 Q92.2538,381.795 91.66,381.5294 Q91.0663,381.2481 90.4413,381.2481 Q89.0975,381.2481 88.41,382.3263 Q87.7225,383.3888 87.7225,385.4825 Q87.7225,387.5763 88.41,388.6544 Q89.0975,389.7169 90.4413,389.7169 Q91.0663,389.7169 91.66,389.4513 Q92.2538,389.17 92.8788,388.5919 L92.8788,391.3106 Z " fill="#000000"/><text fill="#000000" font-family="sans-serif" font-size="14" lengthAdjust="spacing" textLength="32" x="110.41" y="390.5167">User</text><line style="stroke:#181818;stroke-width:0.5;" x1="15.16" x2="205.16" y1="401.67" y2="401.67"/><text fill="#000000" font-family="sans-serif" font-size="14" lengthAdjust="spacing" textLength="66" x="20.16" y="418.6651">id:Integer</text><text fill="#000000" font-family="sans-serif" font-size="14" lengthAdjust="spacing" textLength="84" x="20.16" y="434.962">name:String</text><text fill="#000000" font-family="sans-serif" font-size="14" lengthAdjust="spacing" textLength="112" x="20.16" y="451.2589">password:String</text><line style="stroke:#181818;stroke-width:0.5;" x1="15.16" x2="205.16" y1="458.5606" y2="458.5606"/><ellipse cx="25.16" cy="472.2091" fill="#84BE84" rx="3" ry="3" style="stroke:#038048;stroke-width:1.0;"/><text fill="#000000" font-family="sans-serif" font-size="14" lengthAdjust="spacing" textLength="79" x="34.16" y="475.5557">login():Bool</text><ellipse cx="25.16" cy="488.5059" fill="#84BE84" rx="3" ry="3" style="stroke:#038048;stroke-width:1.0;"/><text fill="#000000" font-family="sans-serif" font-size="14" lengthAdjust="spacing" textLength="90" x="34.16" y="491.8526">logout():Bool</text><ellipse cx="25.16" cy="504.8028" fill="#84BE84" rx="3" ry="3" style="stroke:#038048;stroke-width:1.0;"/><text fill="#000000" font-family="sans-serif" font-size="14" lengthAdjust="spacing" textLength="166" x="34.16" y="508.1495">searchUser(String):User</text></g><!--class FileCreator--><g id="elem_FileCreator"><rect codeLine="18" fill="#F1F1F1" height="64.2969" id="FileCreator" rx="2.5" ry="2.5" style="stroke:#181818;stroke-width:0.5;" width="122" x="1013.16" y="15.15"/><ellipse cx="1035.36" cy="31.15" fill="#A9DCDF" rx="11" ry="11" style="stroke:#181818;stroke-width:1.0;"/><path d="M1035.4694,26.4937 L1034.3131,31.5719 L1036.6413,31.5719 L1035.4694,26.4937 Z M1033.985,24.2594 L1036.9694,24.2594 L1040.3288,36.65 L1037.8756,36.65 L1037.11,33.5875 L1033.8288,33.5875 L1033.0788,36.65 L1030.6413,36.65 L1033.985,24.2594 Z " fill="#000000"/><text fill="#000000" font-family="sans-serif" font-size="14" font-style="italic" lengthAdjust="spacing" textLength="74" x="1050.96" y="35.9967">FileCreator</text><line style="stroke:#181818;stroke-width:0.5;" x1="1014.16" x2="1134.16" y1="47.15" y2="47.15"/><line style="stroke:#181818;stroke-width:0.5;" x1="1014.16" x2="1134.16" y1="55.15" y2="55.15"/><ellipse cx="1024.16" cy="68.7984" fill="#84BE84" rx="3" ry="3" style="stroke:#038048;stroke-width:1.0;"/><text fill="#000000" font-family="sans-serif" font-size="14" lengthAdjust="spacing" textLength="96" x="1033.16" y="72.1451">creatFile():File</text></g><!--class VideoCreator--><g id="elem_VideoCreator"><rect codeLine="22" fill="#F1F1F1" height="64.2969" id="VideoCreator" rx="2.5" ry="2.5" style="stroke:#181818;stroke-width:0.5;" width="138" x="1005.16" y="196.48"/><ellipse cx="1027.36" cy="212.48" fill="#ADD1B2" rx="11" ry="11" style="stroke:#181818;stroke-width:1.0;"/><path d="M1030.3288,218.1206 Q1029.7506,218.4175 1029.11,218.5581 Q1028.4694,218.7144 1027.7663,218.7144 Q1025.2663,218.7144 1023.9381,217.0738 Q1022.6256,215.4175 1022.6256,212.2925 Q1022.6256,209.1675 1023.9381,207.5113 Q1025.2663,205.855 1027.7663,205.855 Q1028.4694,205.855 1029.11,206.0113 Q1029.7663,206.1675 1030.3288,206.4644 L1030.3288,209.1831 Q1029.7038,208.605 1029.11,208.3394 Q1028.5163,208.0581 1027.8913,208.0581 Q1026.5475,208.0581 1025.86,209.1363 Q1025.1725,210.1988 1025.1725,212.2925 Q1025.1725,214.3863 1025.86,215.4644 Q1026.5475,216.5269 1027.8913,216.5269 Q1028.5163,216.5269 1029.11,216.2613 Q1029.7038,215.98 1030.3288,215.4019 L1030.3288,218.1206 Z " fill="#000000"/><text fill="#000000" font-family="sans-serif" font-size="14" lengthAdjust="spacing" textLength="90" x="1042.96" y="217.3267">VideoCreator</text><line style="stroke:#181818;stroke-width:0.5;" x1="1006.16" x2="1142.16" y1="228.48" y2="228.48"/><line style="stroke:#181818;stroke-width:0.5;" x1="1006.16" x2="1142.16" y1="236.48" y2="236.48"/><ellipse cx="1016.16" cy="250.1284" fill="#84BE84" rx="3" ry="3" style="stroke:#038048;stroke-width:1.0;"/><text fill="#000000" font-family="sans-serif" font-size="14" lengthAdjust="spacing" textLength="112" x="1025.16" y="253.4751">creatFile():Video</text></g><!--class ImageCreator--><g id="elem_ImageCreator"><rect codeLine="26" fill="#F1F1F1" height="64.2969" id="ImageCreator" rx="2.5" ry="2.5" style="stroke:#181818;stroke-width:0.5;" width="141" x="1178.66" y="196.48"/><ellipse cx="1200.86" cy="212.48" fill="#ADD1B2" rx="11" ry="11" style="stroke:#181818;stroke-width:1.0;"/><path d="M1203.8288,218.1206 Q1203.2506,218.4175 1202.61,218.5581 Q1201.9694,218.7144 1201.2663,218.7144 Q1198.7663,218.7144 1197.4381,217.0738 Q1196.1256,215.4175 1196.1256,212.2925 Q1196.1256,209.1675 1197.4381,207.5113 Q1198.7663,205.855 1201.2663,205.855 Q1201.9694,205.855 1202.61,206.0113 Q1203.2663,206.1675 1203.8288,206.4644 L1203.8288,209.1831 Q1203.2038,208.605 1202.61,208.3394 Q1202.0163,208.0581 1201.3913,208.0581 Q1200.0475,208.0581 1199.36,209.1363 Q1198.6725,210.1988 1198.6725,212.2925 Q1198.6725,214.3863 1199.36,215.4644 Q1200.0475,216.5269 1201.3913,216.5269 Q1202.0163,216.5269 1202.61,216.2613 Q1203.2038,215.98 1203.8288,215.4019 L1203.8288,218.1206 Z " fill="#000000"/><text fill="#000000" font-family="sans-serif" font-size="14" lengthAdjust="spacing" textLength="93" x="1216.46" y="217.3267">ImageCreator</text><line style="stroke:#181818;stroke-width:0.5;" x1="1179.66" x2="1318.66" y1="228.48" y2="228.48"/><line style="stroke:#181818;stroke-width:0.5;" x1="1179.66" x2="1318.66" y1="236.48" y2="236.48"/><ellipse cx="1189.66" cy="250.1284" fill="#84BE84" rx="3" ry="3" style="stroke:#038048;stroke-width:1.0;"/><text fill="#000000" font-family="sans-serif" font-size="14" lengthAdjust="spacing" textLength="115" x="1198.66" y="253.4751">creatFile():Image</text></g><!--class Image--><g id="elem_Image"><rect codeLine="35" fill="#F1F1F1" height="80.5938" id="Image" rx="2.5" ry="2.5" style="stroke:#181818;stroke-width:0.5;" width="204" x="537.16" y="402.27"/><ellipse cx="613.91" cy="418.27" fill="#ADD1B2" rx="11" ry="11" style="stroke:#181818;stroke-width:1.0;"/><path d="M616.8788,423.9106 Q616.3006,424.2075 615.66,424.3481 Q615.0194,424.5044 614.3163,424.5044 Q611.8163,424.5044 610.4881,422.8638 Q609.1756,421.2075 609.1756,418.0825 Q609.1756,414.9575 610.4881,413.3013 Q611.8163,411.645 614.3163,411.645 Q615.0194,411.645 615.66,411.8013 Q616.3163,411.9575 616.8788,412.2544 L616.8788,414.9731 Q616.2538,414.395 615.66,414.1294 Q615.0663,413.8481 614.4413,413.8481 Q613.0975,413.8481 612.41,414.9263 Q611.7225,415.9888 611.7225,418.0825 Q611.7225,420.1763 612.41,421.2544 Q613.0975,422.3169 614.4413,422.3169 Q615.0663,422.3169 615.66,422.0513 Q616.2538,421.77 616.8788,421.1919 L616.8788,423.9106 Z " fill="#000000"/><text fill="#000000" font-family="sans-serif" font-size="14" lengthAdjust="spacing" textLength="42" x="634.41" y="423.1167">Image</text><line style="stroke:#181818;stroke-width:0.5;" x1="538.16" x2="740.16" y1="434.27" y2="434.27"/><line style="stroke:#181818;stroke-width:0.5;" x1="538.16" x2="740.16" y1="442.27" y2="442.27"/><ellipse cx="548.16" cy="455.9184" fill="#84BE84" rx="3" ry="3" style="stroke:#038048;stroke-width:1.0;"/><text fill="#000000" font-family="sans-serif" font-size="14" lengthAdjust="spacing" textLength="178" x="557.16" y="459.2651">generateThumbnail():void</text><ellipse cx="548.16" cy="472.2153" fill="#84BE84" rx="3" ry="3" style="stroke:#038048;stroke-width:1.0;"/><text fill="#000000" font-family="sans-serif" font-size="14" lengthAdjust="spacing" textLength="80" x="557.16" y="475.562">show():void</text></g><!--class Multimedia--><g id="elem_Multimedia"><rect codeLine="31" fill="#F1F1F1" height="64.2969" id="Multimedia" rx="2.5" ry="2.5" style="stroke:#181818;stroke-width:0.5;" width="106" x="371.16" y="575.45"/><ellipse cx="386.16" cy="591.45" fill="#B4A7E5" rx="11" ry="11" style="stroke:#181818;stroke-width:1.0;"/><path d="M382.0819,587.2156 L382.0819,585.0594 L389.4725,585.0594 L389.4725,587.2156 L387.0038,587.2156 L387.0038,595.2938 L389.4725,595.2938 L389.4725,597.45 L382.0819,597.45 L382.0819,595.2938 L384.5506,595.2938 L384.5506,587.2156 L382.0819,587.2156 Z " fill="#000000"/><text fill="#000000" font-family="sans-serif" font-size="14" font-style="italic" lengthAdjust="spacing" textLength="74" x="400.16" y="596.2967">Multimedia</text><line style="stroke:#181818;stroke-width:0.5;" x1="372.16" x2="476.16" y1="607.45" y2="607.45"/><line style="stroke:#181818;stroke-width:0.5;" x1="372.16" x2="476.16" y1="615.45" y2="615.45"/><ellipse cx="382.16" cy="629.0984" fill="#84BE84" rx="3" ry="3" style="stroke:#038048;stroke-width:1.0;"/><text fill="#000000" font-family="sans-serif" font-size="14" lengthAdjust="spacing" textLength="80" x="391.16" y="632.4451">show():void</text></g><!--class Video--><g id="elem_Video"><rect codeLine="40" fill="#F1F1F1" height="80.5938" id="Video" rx="2.5" ry="2.5" style="stroke:#181818;stroke-width:0.5;" width="204" x="298.16" y="402.27"/><ellipse cx="376.41" cy="418.27" fill="#ADD1B2" rx="11" ry="11" style="stroke:#181818;stroke-width:1.0;"/><path d="M379.3788,423.9106 Q378.8006,424.2075 378.16,424.3481 Q377.5194,424.5044 376.8163,424.5044 Q374.3163,424.5044 372.9881,422.8638 Q371.6756,421.2075 371.6756,418.0825 Q371.6756,414.9575 372.9881,413.3013 Q374.3163,411.645 376.8163,411.645 Q377.5194,411.645 378.16,411.8013 Q378.8163,411.9575 379.3788,412.2544 L379.3788,414.9731 Q378.7538,414.395 378.16,414.1294 Q377.5663,413.8481 376.9413,413.8481 Q375.5975,413.8481 374.91,414.9263 Q374.2225,415.9888 374.2225,418.0825 Q374.2225,420.1763 374.91,421.2544 Q375.5975,422.3169 376.9413,422.3169 Q377.5663,422.3169 378.16,422.0513 Q378.7538,421.77 379.3788,421.1919 L379.3788,423.9106 Z " fill="#000000"/><text fill="#000000" font-family="sans-serif" font-size="14" lengthAdjust="spacing" textLength="39" x="396.91" y="423.1167">Video</text><line style="stroke:#181818;stroke-width:0.5;" x1="299.16" x2="501.16" y1="434.27" y2="434.27"/><line style="stroke:#181818;stroke-width:0.5;" x1="299.16" x2="501.16" y1="442.27" y2="442.27"/><ellipse cx="309.16" cy="455.9184" fill="#84BE84" rx="3" ry="3" style="stroke:#038048;stroke-width:1.0;"/><text fill="#000000" font-family="sans-serif" font-size="14" lengthAdjust="spacing" textLength="178" x="318.16" y="459.2651">generateThumbnail():void</text><ellipse cx="309.16" cy="472.2153" fill="#84BE84" rx="3" ry="3" style="stroke:#038048;stroke-width:1.0;"/><text fill="#000000" font-family="sans-serif" font-size="14" lengthAdjust="spacing" textLength="80" x="318.16" y="475.562">show():void</text></g><!--class Thumbnail--><g id="elem_Thumbnail"><rect codeLine="46" fill="#F1F1F1" height="64.2969" id="Thumbnail" rx="2.5" ry="2.5" style="stroke:#181818;stroke-width:0.5;" width="204" x="524.16" y="575.45"/><ellipse cx="585.91" cy="591.45" fill="#B4A7E5" rx="11" ry="11" style="stroke:#181818;stroke-width:1.0;"/><path d="M581.8319,587.2156 L581.8319,585.0594 L589.2225,585.0594 L589.2225,587.2156 L586.7538,587.2156 L586.7538,595.2938 L589.2225,595.2938 L589.2225,597.45 L581.8319,597.45 L581.8319,595.2938 L584.3006,595.2938 L584.3006,587.2156 L581.8319,587.2156 Z " fill="#000000"/><text fill="#000000" font-family="sans-serif" font-size="14" font-style="italic" lengthAdjust="spacing" textLength="72" x="606.41" y="596.2967">Thumbnail</text><line style="stroke:#181818;stroke-width:0.5;" x1="525.16" x2="727.16" y1="607.45" y2="607.45"/><line style="stroke:#181818;stroke-width:0.5;" x1="525.16" x2="727.16" y1="615.45" y2="615.45"/><ellipse cx="535.16" cy="629.0984" fill="#84BE84" rx="3" ry="3" style="stroke:#038048;stroke-width:1.0;"/><text fill="#000000" font-family="sans-serif" font-size="14" lengthAdjust="spacing" textLength="178" x="544.16" y="632.4451">generateThumbnail():void</text></g><!--class VideoTranscoder--><g id="elem_VideoTranscoder"><rect codeLine="50" fill="#F1F1F1" height="64.2969" id="VideoTranscoder" rx="2.5" ry="2.5" style="stroke:#181818;stroke-width:0.5;" width="189" x="43.66" y="196.48"/><ellipse cx="76.21" cy="212.48" fill="#ADD1B2" rx="11" ry="11" style="stroke:#181818;stroke-width:1.0;"/><path d="M79.1788,218.1206 Q78.6006,218.4175 77.96,218.5581 Q77.3194,218.7144 76.6163,218.7144 Q74.1163,218.7144 72.7881,217.0738 Q71.4756,215.4175 71.4756,212.2925 Q71.4756,209.1675 72.7881,207.5113 Q74.1163,205.855 76.6163,205.855 Q77.3194,205.855 77.96,206.0113 Q78.6163,206.1675 79.1788,206.4644 L79.1788,209.1831 Q78.5538,208.605 77.96,208.3394 Q77.3663,208.0581 76.7413,208.0581 Q75.3975,208.0581 74.71,209.1363 Q74.0225,210.1988 74.0225,212.2925 Q74.0225,214.3863 74.71,215.4644 Q75.3975,216.5269 76.7413,216.5269 Q77.3663,216.5269 77.96,216.2613 Q78.5538,215.98 79.1788,215.4019 L79.1788,218.1206 Z " fill="#000000"/><text fill="#000000" font-family="sans-serif" font-size="14" lengthAdjust="spacing" textLength="118" x="94.11" y="217.3267">VideoTranscoder</text><line style="stroke:#181818;stroke-width:0.5;" x1="44.66" x2="231.66" y1="228.48" y2="228.48"/><line style="stroke:#181818;stroke-width:0.5;" x1="44.66" x2="231.66" y1="236.48" y2="236.48"/><ellipse cx="54.66" cy="250.1284" fill="#84BE84" rx="3" ry="3" style="stroke:#038048;stroke-width:1.0;"/><text fill="#000000" font-family="sans-serif" font-size="14" lengthAdjust="spacing" textLength="163" x="63.66" y="253.4751">transcode(Video):Video</text></g><!--class ContentCensor--><g id="elem_ContentCensor"><rect codeLine="54" fill="#F1F1F1" height="64.2969" id="ContentCensor" rx="2.5" ry="2.5" style="stroke:#181818;stroke-width:0.5;" width="139" x="267.66" y="15.15"/><ellipse cx="283.11" cy="31.15" fill="#ADD1B2" rx="11" ry="11" style="stroke:#181818;stroke-width:1.0;"/><path d="M286.0788,36.7906 Q285.5006,37.0875 284.86,37.2281 Q284.2194,37.3844 283.5163,37.3844 Q281.0163,37.3844 279.6881,35.7437 Q278.3756,34.0875 278.3756,30.9625 Q278.3756,27.8375 279.6881,26.1812 Q281.0163,24.525 283.5163,24.525 Q284.2194,24.525 284.86,24.6812 Q285.5163,24.8375 286.0788,25.1344 L286.0788,27.8531 Q285.4538,27.275 284.86,27.0094 Q284.2663,26.7281 283.6413,26.7281 Q282.2975,26.7281 281.61,27.8062 Q280.9225,28.8687 280.9225,30.9625 Q280.9225,33.0562 281.61,34.1344 Q282.2975,35.1969 283.6413,35.1969 Q284.2663,35.1969 284.86,34.9312 Q285.4538,34.65 286.0788,34.0719 L286.0788,36.7906 Z " fill="#000000"/><text fill="#000000" font-family="sans-serif" font-size="14" lengthAdjust="spacing" textLength="106" x="297.21" y="35.9967">ContentCensor</text><line style="stroke:#181818;stroke-width:0.5;" x1="268.66" x2="405.66" y1="47.15" y2="47.15"/><line style="stroke:#181818;stroke-width:0.5;" x1="268.66" x2="405.66" y1="55.15" y2="55.15"/><ellipse cx="278.66" cy="68.7984" fill="#84BE84" rx="3" ry="3" style="stroke:#038048;stroke-width:1.0;"/><text fill="#000000" font-family="sans-serif" font-size="14" lengthAdjust="spacing" textLength="113" x="287.66" y="72.1451">review(File):Bool</text></g><!--class ImageClassifier--><g id="elem_ImageClassifier"><rect codeLine="58" fill="#F1F1F1" height="64.2969" id="ImageClassifier" rx="2.5" ry="2.5" style="stroke:#181818;stroke-width:0.5;" width="172" x="617.16" y="196.48"/><ellipse cx="648.81" cy="212.48" fill="#ADD1B2" rx="11" ry="11" style="stroke:#181818;stroke-width:1.0;"/><path d="M651.7788,218.1206 Q651.2006,218.4175 650.56,218.5581 Q649.9194,218.7144 649.2163,218.7144 Q646.7163,218.7144 645.3881,217.0738 Q644.0756,215.4175 644.0756,212.2925 Q644.0756,209.1675 645.3881,207.5113 Q646.7163,205.855 649.2163,205.855 Q649.9194,205.855 650.56,206.0113 Q651.2163,206.1675 651.7788,206.4644 L651.7788,209.1831 Q651.1538,208.605 650.56,208.3394 Q649.9663,208.0581 649.3413,208.0581 Q647.9975,208.0581 647.31,209.1363 Q646.6225,210.1988 646.6225,212.2925 Q646.6225,214.3863 647.31,215.4644 Q647.9975,216.5269 649.3413,216.5269 Q649.9663,216.5269 650.56,216.2613 Q651.1538,215.98 651.7788,215.4019 L651.7788,218.1206 Z " fill="#000000"/><text fill="#000000" font-family="sans-serif" font-size="14" lengthAdjust="spacing" textLength="103" x="666.51" y="217.3267">ImageClassifier</text><line style="stroke:#181818;stroke-width:0.5;" x1="618.16" x2="788.16" y1="228.48" y2="228.48"/><line style="stroke:#181818;stroke-width:0.5;" x1="618.16" x2="788.16" y1="236.48" y2="236.48"/><ellipse cx="628.16" cy="250.1284" fill="#84BE84" rx="3" ry="3" style="stroke:#038048;stroke-width:1.0;"/><text fill="#000000" font-family="sans-serif" font-size="14" lengthAdjust="spacing" textLength="146" x="637.16" y="253.4751">classify(Image):String</text></g><!--class OCRProcessor--><g id="elem_OCRProcessor"><rect codeLine="62" fill="#F1F1F1" height="64.2969" id="OCRProcessor" rx="2.5" ry="2.5" style="stroke:#181818;stroke-width:0.5;" width="145" x="824.66" y="196.48"/><ellipse cx="845.06" cy="212.48" fill="#ADD1B2" rx="11" ry="11" style="stroke:#181818;stroke-width:1.0;"/><path d="M848.0288,218.1206 Q847.4506,218.4175 846.81,218.5581 Q846.1694,218.7144 845.4663,218.7144 Q842.9663,218.7144 841.6381,217.0738 Q840.3256,215.4175 840.3256,212.2925 Q840.3256,209.1675 841.6381,207.5113 Q842.9663,205.855 845.4663,205.855 Q846.1694,205.855 846.81,206.0113 Q847.4663,206.1675 848.0288,206.4644 L848.0288,209.1831 Q847.4038,208.605 846.81,208.3394 Q846.2163,208.0581 845.5913,208.0581 Q844.2475,208.0581 843.56,209.1363 Q842.8725,210.1988 842.8725,212.2925 Q842.8725,214.3863 843.56,215.4644 Q844.2475,216.5269 845.5913,216.5269 Q846.2163,216.5269 846.81,216.2613 Q847.4038,215.98 848.0288,215.4019 L848.0288,218.1206 Z " fill="#000000"/><text fill="#000000" font-family="sans-serif" font-size="14" lengthAdjust="spacing" textLength="101" x="860.26" y="217.3267">OCRProcessor</text><line style="stroke:#181818;stroke-width:0.5;" x1="825.66" x2="968.66" y1="228.48" y2="228.48"/><line style="stroke:#181818;stroke-width:0.5;" x1="825.66" x2="968.66" y1="236.48" y2="236.48"/><ellipse cx="835.66" cy="250.1284" fill="#84BE84" rx="3" ry="3" style="stroke:#038048;stroke-width:1.0;"/><text fill="#000000" font-family="sans-serif" font-size="14" lengthAdjust="spacing" textLength="119" x="844.66" y="253.4751">ocr(Image):String</text></g><!--class ASRProcessor--><g id="elem_ASRProcessor"><rect codeLine="66" fill="#F1F1F1" height="64.2969" id="ASRProcessor" rx="2.5" ry="2.5" style="stroke:#181818;stroke-width:0.5;" width="141" x="441.66" y="196.48"/><ellipse cx="461.61" cy="212.48" fill="#ADD1B2" rx="11" ry="11" style="stroke:#181818;stroke-width:1.0;"/><path d="M464.5788,218.1206 Q464.0006,218.4175 463.36,218.5581 Q462.7194,218.7144 462.0163,218.7144 Q459.5163,218.7144 458.1881,217.0738 Q456.8756,215.4175 456.8756,212.2925 Q456.8756,209.1675 458.1881,207.5113 Q459.5163,205.855 462.0163,205.855 Q462.7194,205.855 463.36,206.0113 Q464.0163,206.1675 464.5788,206.4644 L464.5788,209.1831 Q463.9538,208.605 463.36,208.3394 Q462.7663,208.0581 462.1413,208.0581 Q460.7975,208.0581 460.11,209.1363 Q459.4225,210.1988 459.4225,212.2925 Q459.4225,214.3863 460.11,215.4644 Q460.7975,216.5269 462.1413,216.5269 Q462.7663,216.5269 463.36,216.2613 Q463.9538,215.98 464.5788,215.4019 L464.5788,218.1206 Z " fill="#000000"/><text fill="#000000" font-family="sans-serif" font-size="14" lengthAdjust="spacing" textLength="98" x="476.71" y="217.3267">ASRProcessor</text><line style="stroke:#181818;stroke-width:0.5;" x1="442.66" x2="581.66" y1="228.48" y2="228.48"/><line style="stroke:#181818;stroke-width:0.5;" x1="442.66" x2="581.66" y1="236.48" y2="236.48"/><ellipse cx="452.66" cy="250.1284" fill="#84BE84" rx="3" ry="3" style="stroke:#038048;stroke-width:1.0;"/><text fill="#000000" font-family="sans-serif" font-size="14" lengthAdjust="spacing" textLength="115" x="461.66" y="253.4751">asr(Video):String</text></g><!--reverse link CloudDriver to File--><g id="link_CloudDriver_File"><path codeLine="1" d="M151.57,84.71 C182.62,102.3 219.23,124.56 250.16,147.59 C255.75,151.76 261.4,156.23 266.98,160.86 " fill="none" id="CloudDriver-backto-File" style="stroke:#181818;stroke-width:1.0;"/><polygon fill="#181818" points="140.52,77.96,143.795,84.3845,150.9849,83.8325,147.7099,77.4079,140.52,77.96" style="stroke:#181818;stroke-width:1.0;"/></g><!--reverse link CloudDriver to User--><g id="link_CloudDriver_User"><path codeLine="2" d="M46.94,99.69 C38.43,114.47 30.56,131.09 26.16,147.59 C7.6,217.2 6,240.51 26.16,309.67 C32.19,330.39 42.58,350.96 54.04,369.48 " fill="none" id="CloudDriver-backto-User" style="stroke:#181818;stroke-width:1.0;"/><polygon fill="#181818" points="54.18,88.73,47.6497,91.7887,47.9615,98.9931,54.4918,95.9344,54.18,88.73" style="stroke:#181818;stroke-width:1.0;"/></g><!--link File to User--><g id="link_File_User"><path codeLine="7" d="M266.89,295.24 C243.13,317.42 216.4,342.37 191.84,365.3 " fill="none" id="File-to-User" style="stroke:#181818;stroke-width:1.0;stroke-dasharray:7.0,7.0;"/><polygon fill="#181818" points="188.6,368.26,197.9083,365.0421,192.2548,364.8479,192.449,359.1944,188.6,368.26" style="stroke:#181818;stroke-width:1.0;"/></g><!--link FileCreator to File--><g id="link_FileCreator_File"><path codeLine="17" d="M1012.68,53.09 C871.43,64.84 527.9,97.78 424.16,147.59 C420.19,149.5 416.28,151.65 412.43,153.98 " fill="none" id="FileCreator-to-File" style="stroke:#181818;stroke-width:1.0;stroke-dasharray:7.0,7.0;"/><polygon fill="#181818" points="408.61,157.04,418.3552,155.6148,412.8371,154.3695,414.0824,148.8514,408.61,157.04" style="stroke:#181818;stroke-width:1.0;"/></g><!--reverse link FileCreator to VideoCreator--><g id="link_FileCreator_VideoCreator"><path codeLine="21" d="M1074.16,100.53 C1074.16,131.51 1074.16,169.75 1074.16,196.15 " fill="none" id="FileCreator-backto-VideoCreator" style="stroke:#181818;stroke-width:1.0;"/><polygon fill="none" points="1067.16,100.53,1074.16,80.53,1081.16,100.53,1067.16,100.53" style="stroke:#181818;stroke-width:1.0;"/></g><!--reverse link FileCreator to ImageCreator--><g id="link_FileCreator_ImageCreator"><path codeLine="25" d="M1119.07,94.32 C1150.23,126.26 1190.92,167.96 1218.44,196.15 " fill="none" id="FileCreator-backto-ImageCreator" style="stroke:#181818;stroke-width:1.0;"/><polygon fill="none" points="1114.6,99.74,1105.64,80.53,1124.62,89.96,1114.6,99.74" style="stroke:#181818;stroke-width:1.0;"/></g><!--link Image to Multimedia--><g id="link_Image_Multimedia"><path codeLine="29" d="M586.84,483.24 C555.23,507.21 514.89,537.8 482.28,562.52 " fill="none" id="Image-to-Multimedia" style="stroke:#181818;stroke-width:1.0;stroke-dasharray:7.0,7.0;"/><polygon fill="none" points="486.72,568.7,466.55,575.21,478.26,557.55,486.72,568.7" style="stroke:#181818;stroke-width:1.0;"/></g><!--link Video to Multimedia--><g id="link_Video_Multimedia"><path codeLine="30" d="M405.97,483.03 C409.14,504.57 413.1,531.49 416.52,554.71 " fill="none" id="Video-to-Multimedia" style="stroke:#181818;stroke-width:1.0;stroke-dasharray:7.0,7.0;"/><polygon fill="none" points="423.54,553.32,419.52,574.13,409.69,555.36,423.54,553.32" style="stroke:#181818;stroke-width:1.0;"/></g><!--reverse link File to Image--><g id="link_File_Image"><path codeLine="34" d="M423.63,309.28 C423.81,309.41 423.98,309.54 424.16,309.67 C437.8,319.98 514.89,366.84 572.88,401.79 " fill="none" id="File-backto-Image" style="stroke:#181818;stroke-width:1.0;"/><polygon fill="none" points="419.67,314.27,408.4,296.32,428.4,303.32,419.67,314.27" style="stroke:#181818;stroke-width:1.0;"/></g><!--reverse link File to Video--><g id="link_File_Video"><path codeLine="39" d="M366.95,329.85 C374.53,355.37 382.25,381.34 388.34,401.81 " fill="none" id="File-backto-Video" style="stroke:#181818;stroke-width:1.0;"/><polygon fill="none" points="360.05,332.22,361.06,311.06,373.47,328.23,360.05,332.22" style="stroke:#181818;stroke-width:1.0;"/></g><!--link Image to Thumbnail--><g id="link_Image_Thumbnail"><path codeLine="44" d="M636.01,483.03 C634.3,504.46 632.17,531.22 630.32,554.35 " fill="none" id="Image-to-Thumbnail" style="stroke:#181818;stroke-width:1.0;stroke-dasharray:7.0,7.0;"/><polygon fill="none" points="637.23,554.75,628.67,574.13,623.28,553.64,637.23,554.75" style="stroke:#181818;stroke-width:1.0;"/></g><!--link Video to Thumbnail--><g id="link_Video_Thumbnail"><path codeLine="45" d="M455.15,483.24 C488.68,507.43 531.57,538.36 566,563.2 " fill="none" id="Video-to-Thumbnail" style="stroke:#181818;stroke-width:1.0;stroke-dasharray:7.0,7.0;"/><polygon fill="none" points="569.52,557.83,581.64,575.21,561.33,569.19,569.52,557.83" style="stroke:#181818;stroke-width:1.0;"/></g><!--link VideoTranscoder to Video--><g id="link_VideoTranscoder_Video"><path codeLine="49" d="M177.1,261.13 C222.07,297.51 296.31,357.56 346.67,398.3 " fill="none" id="VideoTranscoder-to-Video" style="stroke:#181818;stroke-width:1.0;stroke-dasharray:7.0,7.0;"/><polygon fill="#181818" points="350.17,401.93,345.6879,393.1601,346.2824,398.7857,340.6569,399.3802,350.17,401.93" style="stroke:#181818;stroke-width:1.0;"/></g><!--link ContentCensor to File--><g id="link_ContentCensor_File"><path codeLine="53" d="M337.16,79.53 C337.16,96.85 337.16,119.32 337.16,141.5 " fill="none" id="ContentCensor-to-File" style="stroke:#181818;stroke-width:1.0;stroke-dasharray:7.0,7.0;"/><polygon fill="#181818" points="337.16,146.44,341.16,137.44,337.16,141.44,333.16,137.44,337.16,146.44" style="stroke:#181818;stroke-width:1.0;"/></g><!--link ImageClassifier to Image--><g id="link_ImageClassifier_Image"><path codeLine="57" d="M693.71,260.9 C682.9,296.72 665.09,355.69 652.77,396.47 " fill="none" id="ImageClassifier-to-Image" style="stroke:#181818;stroke-width:1.0;stroke-dasharray:7.0,7.0;"/><polygon fill="#181818" points="651.15,400.84,657.5777,393.3777,652.5933,396.0528,649.9182,391.0685,651.15,400.84" style="stroke:#181818;stroke-width:1.0;"/></g><!--link OCRProcessor to Image--><g id="link_OCRProcessor_Image"><path codeLine="61" d="M862.97,260.92 C846.34,275.92 825.93,293.98 807.16,309.67 C770.67,340.17 728.58,373.21 695.66,398.59 " fill="none" id="OCRProcessor-to-Image" style="stroke:#181818;stroke-width:1.0;stroke-dasharray:7.0,7.0;"/><polygon fill="#181818" points="692.28,401.96,701.8476,399.6231,696.2367,398.9032,696.9567,393.2923,692.28,401.96" style="stroke:#181818;stroke-width:1.0;"/></g><!--link ASRProcessor to Video--><g id="link_ASRProcessor_Video"><path codeLine="65" d="M495.63,260.9 C476.63,296.86 445.28,356.17 423.73,396.96 " fill="none" id="ASRProcessor-to-Video" style="stroke:#181818;stroke-width:1.0;stroke-dasharray:7.0,7.0;"/><polygon fill="#181818" points="421.15,400.84,428.8871,394.7459,423.4829,396.4176,421.8112,391.0134,421.15,400.84" style="stroke:#181818;stroke-width:1.0;"/></g><!--SRC=[bLJBJiCm4BpdAtnCGV014KA282GE2CJhRknjQicrqTff1QN_ZbzfDWI1E4KxCplUtNZTQjlBArGRG7PqSiAkbOQg_GO-Ey1AQEuSezIkOcmPz4rAOgmFiYPfzrM4sEdfESsDMCmnV0tDeqTbkX0vzG7DZV7G1M48GOFm89jBQtM8Zrd_fYsNzM94fDsQ6HRoF534hJX27SzVD1khPAcgHU3UOYek5SvVdKSkF1khB9fTyX4nY6WmJmbJdxFFCA4N9S4Mf7HBeRbHOdzokbdp3gPE59ex9JOufM_ewlEStVRQgpL8nQjqpWnLOTouv088k2j3izjwCYzI5gqdopimWDp3qwfVlngkz93xcrVkdKpftrwaruEQjZg2OwS7x8_Jzjde2Rbnmah8DsLMC-6peH-0El7ZBsvjgC7u5eoZrwxi4oMp4S96mRQEedARIyDjp51BLKgQ_PAHBxSan-zrOXV3okshk_RX7gq0DnH4hIYPVQp0cSN5upSBEY1APWlkS1ZBmI9hutv6ZPBa4PY-46z1jxKeH-IOQTifGxSz0BRta_q7Zc8L_UkSk2YFqnS0]--></g></svg>